<svg version="1.2" xmlns="http://www.w3.org/2000/svg" viewBox="0 0 100 100" width="100" height="100"><style>.a{fill:#fff}.b{fill:none;stroke:#ea3221;stroke-width:4}.c{fill:#fff;stroke:#ea3221;stroke-width:3.3}.d{fill:none;stroke:#ea3221;stroke-width:3}</style><path class="a" d="m0 0h100v100h-100z"/><path fill-rule="evenodd" class="b" d="m74 26.8c0-2-1.5-3.5-3.4-3.5h-10.3c0 0 0.1-4.2 0.1-10.4 0-5.7-4.6-10.9-10.4-10.9-5.8 0-10.2 5-10.2 10.9 0 5.7-0.1 10.4-0.1 10.4h-10.3c-1.9 0-3.4 1.6-3.4 3.5 0 1.9 0 5.8 0 5.8h48c0 0 0-3.9 0-5.8z"/><path fill-rule="evenodd" class="b" d="m50 16.6c-1.9 0-3.4-1.6-3.4-3.6 0-1.9 1.5-3.5 3.4-3.5 1.9 0 3.4 1.6 3.4 3.5 0 2-1.5 3.6-3.4 3.6z"/><path fill-rule="evenodd" class="b" d="m91.1 26.8l-16.7-0.2 0.1 5.9h-48.9v-5.5l-16.7-0.2c-3.8 0-6.9 3.1-6.9 7v57.2c0 3.9 3.1 7 6.9 7h82.2c3.8 0 6.9-3.1 6.9-7v-57.2c0-3.9-3.1-7-6.9-7z"/><path class="c" d="m23.5 65.7c-6.1 2.4-10.5 8.4-10.5 15.4 0 0.3 0.2 0.5 0.4 0.8 0.2 0.2 0.5 0.3 0.7 0.3h31c0.6 0 1.1-0.5 1.1-1.1 0-7-4.3-13-10.5-15.4-1.7 1.3-3.8 2.1-6.1 2.1-2.3 0-4.4-0.8-6.1-2.1z"/><path class="c" d="m29.6 49c-4.9 0-8.8 4-8.8 8.9 0 4.8 3.9 8.8 8.8 8.8 4.9 0 8.9-4 8.9-8.8 0-4.9-4-8.9-8.9-8.9z"/><path class="d" d="m86.3 80.5h-30.9v-1.5h30.9z"/><path class="d" d="m86.3 67.5h-30.9v-1.5h30.9z"/><path class="d" d="m86.3 54.9h-30.9v-1.5h30.9z"/></svg>