<svg xmlns="http://www.w3.org/2000/svg" width="435.677" height="436.082" viewBox="0 0 435.677 436.082">
  <g id="noun-global-business-2253046" transform="translate(-70 0.004)">
    <path id="Path_108" data-name="Path 108" d="M175.838,290.048a139.917,139.917,0,0,1-11.469-17.9,179.13,179.13,0,0,1-10.476-23.55H121.242a137.076,137.076,0,0,0,10.305,11.488,140.441,140.441,0,0,0,44.294,29.962ZM107.616,228.18h39.96a267.342,267.342,0,0,1-8.054-57.155H90.782a139.508,139.508,0,0,0,16.83,57.155Zm-16.83-77.574h48.739a266.959,266.959,0,0,1,8.054-57.136h-39.96a139.38,139.38,0,0,0-16.83,57.136Zm30.457-77.574h32.651A178.2,178.2,0,0,1,164.369,49.5a137.212,137.212,0,0,1,11.469-17.9,140.73,140.73,0,0,0-44.294,29.94,143.426,143.426,0,0,0-10.305,11.488ZM285.8,31.6A137.377,137.377,0,0,1,297.27,49.5a179.1,179.1,0,0,1,10.5,23.531H340.4a143.037,143.037,0,0,0-10.305-11.488A140.625,140.625,0,0,0,285.8,31.6Zm68.241,61.868h-39.96a268.327,268.327,0,0,1,8.054,57.136h48.718a139.685,139.685,0,0,0-16.811-57.136Zm16.811,77.556H322.136l-.058,1.45H318.7a33.372,33.372,0,0,0-17.307,4.808c.134-2.079.228-4.16.3-6.26H241.033v50.666h-4.981a38.212,38.212,0,0,0-15.438,3.246V171.025H159.949a244.441,244.441,0,0,0,8.74,57.155h46.047A38.547,38.547,0,0,0,199.414,248.6H175.749a153.567,153.567,0,0,0,6.582,13.891,106.474,106.474,0,0,0,15.322,21.89v33.833a160.846,160.846,0,1,1,193.982-157.4q0,5.867-.419,11.66H370.74ZM159.942,150.606h60.665V93.47H168.683a244.277,244.277,0,0,0-8.74,57.136Zm15.8-77.574h44.865V21.947c-14.484,4.352-27.786,17.766-38.282,37.195q-3.519,6.555-6.582,13.891Zm65.284-51.086V73.032h44.865a149.008,149.008,0,0,0-6.582-13.891c-10.476-19.426-23.8-32.843-38.282-37.195ZM292.95,93.47H241.026v57.136h60.665a242.384,242.384,0,0,0-8.74-57.136ZM505.675,295.793V420.232a15.484,15.484,0,0,1-15.438,15.438H236.045a15.484,15.484,0,0,1-15.438-15.438V295.793H341.576v23.875a21.565,21.565,0,1,0,43.13,0V295.793ZM318.694,195.433h88.893a10.677,10.677,0,0,1,10.649,10.649v30.5H401.71V211.962H324.574v24.616H308.048v-30.5A10.677,10.677,0,0,1,318.7,195.433ZM236.048,244.65H490.24a15.484,15.484,0,0,1,15.438,15.438v27.634H376.735v31.946a13.588,13.588,0,1,1-27.175,0V287.722H220.616V260.088a15.484,15.484,0,0,1,15.438-15.438Zm127.092,67.5a6.517,6.517,0,1,1-6.528,6.528A6.525,6.525,0,0,1,363.14,312.146Z" transform="translate(-0.001)" fill="#3d3d3d"/>
    <g id="Group_85" data-name="Group 85" transform="translate(70 435.884)">
      <path id="Path_109" data-name="Path 109" d="M.061-.021H.012C0-.027,0-.039,0-.057A.036.036,0,0,1,.012-.082.038.038,0,0,1,.036-.094H.049a.013.013,0,0,1,.012.012v.012A.013.013,0,0,0,.049-.082a.038.038,0,0,0-.024.012v.036H.061Z" transform="translate(0 0.094)" fill="#3d3d3d"/>
    </g>
    <g id="Group_86" data-name="Group 86" transform="translate(70.082 435.908)">
      <path id="Path_110" data-name="Path 110" d="M.052-.05H.028v.036H.016V-.062H.052Z" transform="translate(-0.016 0.062)" fill="#3d3d3d"/>
    </g>
    <g id="Group_87" data-name="Group 87" transform="translate(70.119 435.908)">
      <path id="Path_111" data-name="Path 111" d="M.061-.038H.024v.012H.061v.012H.012A.028.028,0,0,1,0-.038.011.011,0,0,1,.012-.05.038.038,0,0,1,.036-.062.013.013,0,0,1,.049-.05.013.013,0,0,1,.061-.038ZM.049-.05H.024Z" transform="translate(0 0.062)" fill="#3d3d3d"/>
    </g>
    <g id="Group_88" data-name="Group 88" transform="translate(70.182 435.908)">
      <path id="Path_112" data-name="Path 112" d="M.036-.038H.024v.012H.036Zm.024,0v.024H.036V-.026a.011.011,0,0,1-.012.012H0V-.038A.038.038,0,0,1,.024-.05H.012V-.062H.024c.015,0,.024.006.024.012A.013.013,0,0,1,.061-.038Z" transform="translate(0 0.062)" fill="#3d3d3d"/>
    </g>
    <g id="Group_89" data-name="Group 89" transform="translate(70.246 435.884)">
      <path id="Path_113" data-name="Path 113" d="M.024-.094v.024H.049v.012H.024v.024H.036v.012H.012V-.057H0V-.069H.012V-.094Z" transform="translate(0 0.094)" fill="#3d3d3d"/>
    </g>
    <g id="Group_90" data-name="Group 90" transform="translate(70.292 435.908)">
      <path id="Path_114" data-name="Path 114" d="M.061-.038H.024v.012H.061v.012H.012A.028.028,0,0,1,0-.038.011.011,0,0,1,.012-.05.038.038,0,0,1,.036-.062.013.013,0,0,1,.049-.05.013.013,0,0,1,.061-.038ZM.049-.05H.024Z" transform="translate(0 0.062)" fill="#3d3d3d"/>
    </g>
    <g id="Group_91" data-name="Group 91" transform="translate(70.356 435.884)">
      <path id="Path_115" data-name="Path 115" d="M.049-.069V-.094H.061v.073H.049V-.033L.036-.021H0V-.057A.038.038,0,0,1,.024-.069H.049ZM.036-.033A.011.011,0,0,0,.049-.045.013.013,0,0,0,.036-.057H.024v.024Z" transform="translate(0 0.094)" fill="#3d3d3d"/>
    </g>
    <g id="Group_92" data-name="Group 92" transform="translate(70.471 435.884)">
      <path id="Path_116" data-name="Path 116" d="M.04-.033A.011.011,0,0,0,.052-.045.013.013,0,0,0,.04-.057H.028v.024ZM.028-.069H.04a.013.013,0,0,1,.012.012.013.013,0,0,1,.012.012.038.038,0,0,1-.012.024H.028v0H.016V-.094H.028Z" transform="translate(-0.016 0.094)" fill="#3d3d3d"/>
    </g>
    <g id="Group_93" data-name="Group 93" transform="translate(70.526 435.908)">
      <path id="Path_117" data-name="Path 117" d="M0-.062H.012l.024.036L.049-.062H.061L.036-.014A.013.013,0,0,1,.024,0V.01H.012V0H.024V-.014Z" transform="translate(0 0.062)" fill="#3d3d3d"/>
    </g>
    <g id="Group_94" data-name="Group 94" transform="translate(70.635 435.908)">
      <path id="Path_118" data-name="Path 118" d="M.028-.026V.01H.016V-.062H.04A.013.013,0,0,1,.052-.05a.013.013,0,0,1,.012.012.038.038,0,0,1-.012.024H.028ZM.04-.05H.028v.024H.04A.011.011,0,0,0,.052-.038.013.013,0,0,0,.04-.05Z" transform="translate(-0.016 0.062)" fill="#3d3d3d"/>
    </g>
    <g id="Group_95" data-name="Group 95" transform="translate(70.69 435.908)">
      <path id="Path_119" data-name="Path 119" d="M.036-.05H.024v.024H.036A.011.011,0,0,0,.049-.038.013.013,0,0,0,.036-.05Zm0-.012A.013.013,0,0,1,.049-.05a.013.013,0,0,1,.012.012.038.038,0,0,1-.012.024H.012A.028.028,0,0,1,0-.038.011.011,0,0,1,.012-.05.038.038,0,0,1,.036-.062Z" transform="translate(0 0.062)" fill="#3d3d3d"/>
    </g>
    <g id="Group_96" data-name="Group 96" transform="translate(70.769 435.908)">
      <path id="Path_120" data-name="Path 120" d="M.028-.026V.01H.016V-.062H.04A.013.013,0,0,1,.052-.05a.013.013,0,0,1,.012.012.038.038,0,0,1-.012.024H.028ZM.04-.05H.028v.024H.04A.011.011,0,0,0,.052-.038.013.013,0,0,0,.04-.05Z" transform="translate(-0.016 0.062)" fill="#3d3d3d"/>
    </g>
    <g id="Group_97" data-name="Group 97" transform="translate(70.824 435.908)">
      <path id="Path_121" data-name="Path 121" d="M.049-.062V-.05H.024v.024H.049v.012H.012A.028.028,0,0,1,0-.038.011.011,0,0,1,.012-.05.038.038,0,0,1,.036-.062Z" transform="translate(0 0.062)" fill="#3d3d3d"/>
    </g>
    <g id="Group_98" data-name="Group 98" transform="translate(70.881 435.908)">
      <path id="Path_122" data-name="Path 122" d="M.036-.05H.024v.024H.036A.011.011,0,0,0,.049-.038.013.013,0,0,0,.036-.05Zm0-.012A.013.013,0,0,1,.049-.05a.013.013,0,0,1,.012.012.038.038,0,0,1-.012.024H.012A.028.028,0,0,1,0-.038.011.011,0,0,1,.012-.05.038.038,0,0,1,.036-.062Z" transform="translate(0 0.062)" fill="#3d3d3d"/>
    </g>
    <g id="Group_99" data-name="Group 99" transform="translate(70.957 435.908)">
      <path id="Path_123" data-name="Path 123" d="M.052-.05H.028v.036H.016V-.062H.052Z" transform="translate(-0.016 0.062)" fill="#3d3d3d"/>
    </g>
    <g id="Group_100" data-name="Group 100" transform="translate(71.006 435.908)">
      <path id="Path_124" data-name="Path 124" d="M.064-.05v.036H.052V-.05H.028v.036H.016V-.062H.04A.013.013,0,0,1,.052-.05Z" transform="translate(-0.016 0.062)" fill="#3d3d3d"/>
    </g>
    <g id="Group_101" data-name="Group 101" transform="translate(71.061 435.908)">
      <path id="Path_125" data-name="Path 125" d="M.036-.038H.024v.012H.036Zm.024,0v.024H.036V-.026a.011.011,0,0,1-.012.012H0V-.038A.038.038,0,0,1,.024-.05H.012V-.062H.024c.015,0,.024.006.024.012A.013.013,0,0,1,.061-.038Z" transform="translate(0 0.062)" fill="#3d3d3d"/>
    </g>
    <g id="Group_102" data-name="Group 102" transform="translate(71.137 435.908)">
      <path id="Path_126" data-name="Path 126" d="M.052-.05H.028v.036H.016V-.062H.052Z" transform="translate(-0.016 0.062)" fill="#3d3d3d"/>
    </g>
    <g id="Group_103" data-name="Group 103" transform="translate(71.173 435.884)">
      <path id="Path_127" data-name="Path 127" d="M.024-.094v.024H.049v.012H.024v.024H.036v.012H.012V-.057H0V-.069H.012V-.094Z" transform="translate(0 0.094)" fill="#3d3d3d"/>
    </g>
    <g id="Group_104" data-name="Group 104" transform="translate(71.219 435.908)">
      <path id="Path_128" data-name="Path 128" d="M.049-.062V-.05H.036a.013.013,0,0,1,.012.012v.012L.036-.014H0V-.026H.036A.013.013,0,0,0,.024-.038H0V-.062H.049Z" transform="translate(0 0.062)" fill="#3d3d3d"/>
    </g>
    <g id="Group_105" data-name="Group 105" transform="translate(70 435.981)">
      <path id="Path_129" data-name="Path 129" d="M.036-.094v.012H.024v.012H.036v.012H.024v.036H.012V-.057H0V-.069H.012V-.082L.024-.094Z" transform="translate(0 0.094)" fill="#3d3d3d"/>
    </g>
    <g id="Group_106" data-name="Group 106" transform="translate(70.055 436.005)">
      <path id="Path_130" data-name="Path 130" d="M.052-.05H.028v.036H.016V-.062H.052Z" transform="translate(-0.016 0.062)" fill="#3d3d3d"/>
    </g>
    <g id="Group_107" data-name="Group 107" transform="translate(70.088 436.005)">
      <path id="Path_131" data-name="Path 131" d="M.036-.05H.024v.024H.036A.011.011,0,0,0,.049-.038.013.013,0,0,0,.036-.05Zm0-.012A.013.013,0,0,1,.049-.05a.013.013,0,0,1,.012.012.038.038,0,0,1-.012.024H.012A.028.028,0,0,1,0-.038.011.011,0,0,1,.012-.05.038.038,0,0,1,.036-.062Z" transform="translate(0 0.062)" fill="#3d3d3d"/>
    </g>
    <g id="Group_108" data-name="Group 108" transform="translate(70.167 436.005)">
      <path id="Path_132" data-name="Path 132" d="M.064-.062H.076A.013.013,0,0,1,.089-.05H.1v.036H.076V-.05H.064v.036H.04V-.05H.028v.036H.016V-.062H.064Z" transform="translate(-0.016 0.062)" fill="#3d3d3d"/>
    </g>
    <g id="Group_109" data-name="Group 109" transform="translate(70.286 435.981)">
      <path id="Path_133" data-name="Path 133" d="M.024-.094v.024H.049v.012H.024v.024H.036v.012H.012V-.057H0V-.069H.012V-.094Z" transform="translate(0 0.094)" fill="#3d3d3d"/>
    </g>
    <g id="Group_110" data-name="Group 110" transform="translate(70.343 435.981)">
      <path id="Path_134" data-name="Path 134" d="M.064-.057v.036H.052V-.057H.028v.036H.016V-.094H.028v.024H.04a.013.013,0,0,1,.012.012Z" transform="translate(-0.016 0.094)" fill="#3d3d3d"/>
    </g>
    <g id="Group_111" data-name="Group 111" transform="translate(70.401 436.005)">
      <path id="Path_135" data-name="Path 135" d="M.061-.038H.024v.012H.061v.012H.012A.028.028,0,0,1,0-.038.011.011,0,0,1,.012-.05.038.038,0,0,1,.036-.062.013.013,0,0,1,.049-.05.013.013,0,0,1,.061-.038ZM.049-.05H.024Z" transform="translate(0 0.062)" fill="#3d3d3d"/>
    </g>
    <g id="Group_112" data-name="Group 112" transform="translate(70.511 435.981)">
      <path id="Path_136" data-name="Path 136" d="M.016-.094H.028l.024.049V-.094H.076v.073H.052L.028-.069v.049H.016Z" transform="translate(-0.016 0.094)" fill="#3d3d3d"/>
    </g>
    <g id="Group_113" data-name="Group 113" transform="translate(70.577 436.005)">
      <path id="Path_137" data-name="Path 137" d="M.036-.05H.024v.024H.036A.011.011,0,0,0,.049-.038.013.013,0,0,0,.036-.05Zm0-.012A.013.013,0,0,1,.049-.05a.013.013,0,0,1,.012.012.038.038,0,0,1-.012.024H.012A.028.028,0,0,1,0-.038.011.011,0,0,1,.012-.05.038.038,0,0,1,.036-.062Z" transform="translate(0 0.062)" fill="#3d3d3d"/>
    </g>
    <g id="Group_114" data-name="Group 114" transform="translate(70.656 436.005)">
      <path id="Path_138" data-name="Path 138" d="M.016-.038V-.062H.028v.036H.04L.052-.038V-.062H.064v.049H.052V-.026L.04-.014H.016Z" transform="translate(-0.016 0.062)" fill="#3d3d3d"/>
    </g>
    <g id="Group_115" data-name="Group 115" transform="translate(70.723 436.005)">
      <path id="Path_139" data-name="Path 139" d="M.064-.05v.036H.052V-.05H.028v.036H.016V-.062H.04A.013.013,0,0,1,.052-.05Z" transform="translate(-0.016 0.062)" fill="#3d3d3d"/>
    </g>
    <g id="Group_116" data-name="Group 116" transform="translate(70.824 435.981)">
      <path id="Path_140" data-name="Path 140" d="M.016-.094H.04a.013.013,0,0,1,.012.012.013.013,0,0,1,.012.012.038.038,0,0,1-.012.024H.028v.024H.016Zm.012.012v.024H.04A.011.011,0,0,0,.052-.069H.04V-.082Z" transform="translate(-0.016 0.094)" fill="#3d3d3d"/>
    </g>
    <g id="Group_117" data-name="Group 117" transform="translate(70.893 436.005)">
      <path id="Path_141" data-name="Path 141" d="M.052-.05H.028v.036H.016V-.062H.052Z" transform="translate(-0.016 0.062)" fill="#3d3d3d"/>
    </g>
    <g id="Group_118" data-name="Group 118" transform="translate(70.93 436.005)">
      <path id="Path_142" data-name="Path 142" d="M.036-.05H.024v.024H.036A.011.011,0,0,0,.049-.038.013.013,0,0,0,.036-.05Zm0-.012A.013.013,0,0,1,.049-.05a.013.013,0,0,1,.012.012.038.038,0,0,1-.012.024H.012A.028.028,0,0,1,0-.038.011.011,0,0,1,.012-.05.038.038,0,0,1,.036-.062Z" transform="translate(0 0.062)" fill="#3d3d3d"/>
    </g>
    <g id="Group_119" data-name="Group 119" transform="translate(70.994 435.981)">
      <path id="Path_143" data-name="Path 143" d="M.012-.069H.024v.049a.013.013,0,0,1-.012.012A.013.013,0,0,1,0,0V-.021H.012Zm0-.024H.024v.012H.012Z" transform="translate(0 0.094)" fill="#3d3d3d"/>
    </g>
    <g id="Group_120" data-name="Group 120" transform="translate(71.027 436.005)">
      <path id="Path_144" data-name="Path 144" d="M.061-.038H.024v.012H.061v.012H.012A.028.028,0,0,1,0-.038.011.011,0,0,1,.012-.05.038.038,0,0,1,.036-.062.013.013,0,0,1,.049-.05.013.013,0,0,1,.061-.038ZM.049-.05H.024Z" transform="translate(0 0.062)" fill="#3d3d3d"/>
    </g>
    <g id="Group_121" data-name="Group 121" transform="translate(71.094 436.005)">
      <path id="Path_145" data-name="Path 145" d="M.049-.062V-.05H.024v.024H.049v.012H.012A.028.028,0,0,1,0-.038.011.011,0,0,1,.012-.05.038.038,0,0,1,.036-.062Z" transform="translate(0 0.062)" fill="#3d3d3d"/>
    </g>
    <g id="Group_122" data-name="Group 122" transform="translate(71.149 435.981)">
      <path id="Path_146" data-name="Path 146" d="M.024-.094v.024H.049v.012H.024v.024H.036v.012H.012V-.057H0V-.069H.012V-.094Z" transform="translate(0 0.094)" fill="#3d3d3d"/>
    </g>
  </g>
</svg>
