<svg id="SvgjsSvg1001" width="288" height="288" xmlns="http://www.w3.org/2000/svg" version="1.1" xmlns:xlink="http://www.w3.org/1999/xlink" xmlns:svgjs="http://svgjs.com/svgjs"><defs id="SvgjsDefs1002"></defs><g id="SvgjsG1008"><svg xmlns="http://www.w3.org/2000/svg" width="288" height="288" version="1.0" viewBox="0 0 512 512"><g transform="matrix(.1 0 0 -.1 0 512)" fill="#ea2330" class="color000 svgShape"><path d="M938 5110 c-232 -40 -441 -182 -559 -380 -64 -108 -98 -220 -110-357 -6 -75 -9 -777 -7 -1903 l3 -1785 23 -80 c79 -281 285 -492 562 -577 l75
-22 810 -4 810 -3 44 23 c25 13 59 40 75 61 29 36 31 45 31 117 0 72 -2 81
-31 117 -16 21 -50 48 -74 61 l-44 22 -761 0 c-824 0 -828 0 -920 55 -64 37
-125 105 -159 175 l-31 65 0 1865 0 1865 32 65 c52 107 133 177 241 210 66 20
85 20 1367 18 l1300 -3 58 -23 c81 -33 168 -116 209 -200 l33 -67 5 -1025 c6
-1129 1 -1049 67 -1112 99 -94 251 -68 314 54 18 36 19 74 19 1060 0 987 -1
1026 -20 1106 -66 274 -280 497 -560 584 l-75 23 -1340 1 c-737 1 -1361 -2
-1387 -6z" fill="#ea2330" class="color000 svgShape"></path><path d="M1205 4211c-77-36-115-95-115-181 0-60 13-96 48-134 86-91 226-84 306 17 29 36 31 45 31 117 0 72-2 81-31 117-60 76-157 102-239 64zM1985 4211c-77-36-115-95-115-181 0-86 38-145 115-181 38-17 79-19 710-19l671 0 44 23c24 12 58 39 74 60 29 36 31 45 31 117 0 72-2 81-31 117-16 21-50 48-74 61l-44 22-671 0c-631 0-672-2-710-19zM1205 3411c-77-36-115-95-115-181 0-60 13-96 48-134 86-91 226-84 306 17 29 36 31 45 31 117 0 72-2 81-31 117-60 76-157 102-239 64zM1985 3411c-77-36-115-95-115-181 0-86 38-145 115-181 38-17 79-19 710-19l671 0 44 23c24 12 58 39 74 60 29 36 31 45 31 117 0 72-2 81-31 117-16 21-50 48-74 61l-44 22-671 0c-631 0-672-2-710-19zM1205 2611c-77-36-115-95-115-181 0-60 13-96 48-134 86-91 226-84 306 17 29 36 31 45 31 117 0 72-2 81-31 117-60 76-157 102-239 64zM1985 2611c-77-36-115-95-115-181 0-86 38-145 115-181 38-17 79-19 710-19l671 0 44 23c24 12 58 39 74 60 29 36 31 45 31 117 0 72-2 81-31 117-16 21-50 48-74 61l-44 22-671 0c-631 0-672-2-710-19zM1205 1811c-77-36-115-95-115-181 0-60 13-96 48-134 86-91 226-84 306 17 29 36 31 45 31 117 0 72-2 81-31 117-60 76-157 102-239 64zM1985 1811c-77-36-115-95-115-181 0-86 38-145 115-181 34-16 66-19 230-19 211 0 242 7 299 68 88 94 53 257-69 313-34 16-66 19-230 19-164 0-196-3-230-19zM3222 1815c-100-22-204-78-282-152-133-125-189-253-197-453-6-145 6-210 62-329 84-177 222-316 575-581 69-51 166-133 215-181 94-92 140-119 200-119 60 0 104 26 199 118 50 48 174 150 276 227 294 223 437 372 514 536 50 106 66 177 66 298 0 199-54 336-184 467-92 92-185 144-303 169-177 38-376-1-514-100-27-19-52-35-55-35-3 0-23 14-44 30-125 99-349 144-528 105zm265-412c53-28 90-85 107-166 26-125 95-190 201-190 106 0 182 69 199 181 20 130 102 202 232 202 137 0 224-97 224-251 0-66-4-84-32-140-43-83-157-197-323-324-71-54-169-129-217-166-48-38-90-64-93-59-3 4-85 69-183 143-241 184-325 257-383 335-60 82-79 136-79 221 0 111 54 196 145 230 44 16 157 7 202-16z" fill="#ea2330" class="color000 svgShape"></path></g></svg></g></svg>