<svg xmlns="http://www.w3.org/2000/svg" width="23.594" height="18.875" viewBox="0 0 23.594 18.875">
  <path id="branch-configuration" d="M4.719,12.977H1.18A1.18,1.18,0,0,0,0,14.156V17.7a1.18,1.18,0,0,0,1.18,1.18H4.719A1.18,1.18,0,0,0,5.9,17.7V14.156A1.18,1.18,0,0,0,4.719,12.977Zm-.885-2.949h7.078V11.8h1.77v-1.77H19.76V11.8h1.77V9.674a1.418,1.418,0,0,0-1.416-1.416H12.682V5.9h1.475a1.18,1.18,0,0,0,1.18-1.18V1.18A1.18,1.18,0,0,0,14.156,0H9.438a1.18,1.18,0,0,0-1.18,1.18V4.719A1.18,1.18,0,0,0,9.438,5.9h1.475V8.258H3.48A1.418,1.418,0,0,0,2.064,9.674V11.8h1.77Zm9.732,2.949H10.027a1.18,1.18,0,0,0-1.18,1.18V17.7a1.18,1.18,0,0,0,1.18,1.18h3.539a1.18,1.18,0,0,0,1.18-1.18V14.156A1.18,1.18,0,0,0,13.566,12.977Zm8.848,0H18.875a1.18,1.18,0,0,0-1.18,1.18V17.7a1.18,1.18,0,0,0,1.18,1.18h3.539a1.18,1.18,0,0,0,1.18-1.18V14.156A1.18,1.18,0,0,0,22.414,12.977Z" fill="#4a69bd"/>
</svg>
