<svg xmlns="http://www.w3.org/2000/svg" width="17.576" height="17.606" viewBox="0 0 17.576 17.606">
  <path id="phone-icon" d="M12.75,4.463a3.7,3.7,0,0,1,2.925,2.925M12.75,1.5a6.666,6.666,0,0,1,5.888,5.881m-.741,5.91v2.222a1.481,1.481,0,0,1-1.615,1.481A14.657,14.657,0,0,1,9.891,14.72a14.442,14.442,0,0,1-4.444-4.444A14.657,14.657,0,0,1,3.174,3.855,1.481,1.481,0,0,1,4.648,2.241H6.87A1.481,1.481,0,0,1,8.351,3.515,9.51,9.51,0,0,0,8.869,5.6a1.481,1.481,0,0,1-.333,1.563L7.6,8.1a11.85,11.85,0,0,0,4.444,4.444l.941-.941a1.481,1.481,0,0,1,1.563-.333,9.51,9.51,0,0,0,2.081.518A1.481,1.481,0,0,1,17.9,13.291Z" transform="translate(-2.167 -0.396)" fill="none" stroke="#fff" stroke-linecap="round" stroke-linejoin="round" stroke-width="2"/>
</svg>
