<svg xmlns="http://www.w3.org/2000/svg" width="16.483" height="16.73" viewBox="0 0 16.483 16.73">
  <path id="sea-lcl" d="M8.57,0C7.892,0,6.9.281,6.9.53V2.006a9.084,9.084,0,0,1,1.687-.19A10.028,10.028,0,0,1,10.274,2V.538C10.274.282,9.246,0,8.57,0Zm.015,2.64c-1.423,0-3.532.583-3.532.832V5.279a13.1,13.1,0,0,1,3.5-1.724,12.138,12.138,0,0,1,3.633,1.739l0,0V3.47C12.187,3.212,10.008,2.639,8.585,2.639Zm.017,1.8a8.9,8.9,0,0,0-1.543.618A12.257,12.257,0,0,0,4.139,6.986a8,8,0,0,1,1.85,3.29l.026.079.028.026-.036-.026A4.211,4.211,0,0,0,3.238,9.2,4.3,4.3,0,0,0,.315,10.475a8.956,8.956,0,0,0,.368,1.044v.011l.017.033a8.7,8.7,0,0,0,8.15,5.162,8.706,8.706,0,0,0,7.758-5.478c.068-.171.128-.353.19-.524-1.175-.874-3.019-1.961-3.73-1.824v0c-.541.1-1.175.882-1.989,1.662a8.417,8.417,0,0,1,1.974-3.565,10.86,10.86,0,0,0-.866-.712V6.274A11.458,11.458,0,0,0,8.6,4.439ZM8.6,5.064,9.022,7.19l-.1,1.861-.309,2.759v.013l-.035,0s-.01-.006-.015-.007v-.019L8.217,9.042l-.085-1.85Zm.627,6.848.015,0-.1.039c.028-.016.056-.025.084-.042Z" transform="translate(-0.315 0.002)" fill="#707070"/>
</svg>
