<svg xmlns="http://www.w3.org/2000/svg" width="25.88" height="21.602" viewBox="0 0 25.88 21.602">
  <g id="team" transform="translate(-0.5 -3.436)">
    <path id="Path_98" data-name="Path 98" d="M20.32,29.558V27.205A4.705,4.705,0,0,0,15.615,22.5H6.205A4.705,4.705,0,0,0,1.5,27.205v2.353" transform="translate(0 -5.519)" fill="none" stroke="#4a69bd" stroke-linecap="round" stroke-linejoin="round" stroke-width="2"/>
    <path id="Path_99" data-name="Path 99" d="M16.91,9.205A4.705,4.705,0,1,1,12.205,4.5,4.705,4.705,0,0,1,16.91,9.205Z" transform="translate(-1.866)" fill="none" stroke="#4a69bd" stroke-linecap="round" stroke-linejoin="round" stroke-width="2"/>
    <path id="Path_100" data-name="Path 100" d="M33.529,29.6V27.247A4.705,4.705,0,0,0,30,22.7" transform="translate(-8.149 -5.561)" fill="none" stroke="#4a69bd" stroke-linecap="round" stroke-linejoin="round" stroke-width="2"/>
    <path id="Path_101" data-name="Path 101" d="M24,4.7a4.705,4.705,0,0,1,0,9.116" transform="translate(-6.434 -0.042)" fill="none" stroke="#4a69bd" stroke-linecap="round" stroke-linejoin="round" stroke-width="2"/>
  </g>
</svg>
