<svg version="1.2" xmlns="http://www.w3.org/2000/svg" viewBox="0 0 100 100" width="100" height="100"><style>.a{fill:#ea2331}.b{fill:none;stroke:#ea2331;stroke-linecap:round;stroke-width:4.7}.c{fill:none;stroke:#ea2331;stroke-linecap:round;stroke-linejoin:round;stroke-width:4.7}</style><path fill-rule="evenodd" class="a" d="m85.7 100c-0.2 0-70.1 0-70.1 0 0 0-0.9 0-1.3 0-7.9 0-14.3-6.4-14.3-14.3v-37.2h20.4v-48.5h79.6v85.7c0 7.9-6.4 14.3-14.3 14.3zm-58.5-8.2h58.5c3.4 0 6.1-2.8 6.1-6.1v-77.5h-63.2v77.5c0 2.2-0.5 4.2-1.4 6.1zm-19-35.1v29c0 3.3 2.7 6.1 6.1 6.1 3.4 0 6.1-2.8 6.1-6.1v-29z"/><path class="b" d="m80 20l-1.9 2.2c-10.4 12.1-24.4 20.6-40.1 24.5"/><path class="c" d="m68 20h12v11.9"/><path class="b" d="m79.5 82v-35"/><path class="b" d="m39.5 82v-14"/><path class="b" d="m51.5 82v-22"/><path class="b" d="m64.5 82v-28"/></svg>