<svg version="1.2" xmlns="http://www.w3.org/2000/svg" viewBox="0 0 100 100" width="100" height="100"><style>.a{fill:none;stroke:#ea2331;stroke-width:5}</style><path fill-rule="evenodd" class="a" d="m74.5 34.5h-49c0 0 0-4.8 0-6.7 0-2 1.6-3.5 3.5-3.5h10.5c0 0 0-4.7 0-10.4 0-5.9 4.6-10.9 10.5-10.9 5.9 0 10.6 5.2 10.6 10.9 0 6.1-0.1 10.3-0.1 10.3h10.5c1.9 0 3.5 1.6 3.5 3.5 0 2 0 6.8 0 6.8zm-21-17.5c0-1.9-1.6-3.5-3.5-3.5-1.9 0-3.5 1.6-3.5 3.5 0 2 1.6 3.5 3.5 3.5 1.9 0 3.5-1.5 3.5-3.5zm45.5 17.8v56c0 3.8-3.1 7-7 7h-84c-3.9 0-7-3.2-7-7v-56c0-3.9 3.1-7 7-7l14 0.2v10.4h56.1l-0.1-10.9 14 0.2c3.9 0 7 3.2 7 7.1zm-77.7 26.4c0 5.5 3.5 10 7.7 10 4.2 0 7.7-4.5 7.7-10 0-5.6-3.5-10.1-7.7-10.1-4.2 0-7.7 4.5-7.7 10.1zm22.7 21.9c0 0-0.6-6.5-2.8-7.9-1.9-1.3-7.3-2.1-7.3-2.1 0 0-3.5 3.7-5 3.7-1.5 0-5-3.7-5-3.7 0 0-5.5 0.8-7.3 2.1-1.9 1.2-2.8 7.9-2.8 7.9zm41-3.9h-31.5v3.5h31.5zm0-12h-31.5v3.5h31.5zm0-12h-31.5v3.5h31.5z"/></svg>