<svg version="1.2" xmlns="http://www.w3.org/2000/svg" viewBox="0 0 100 100" width="100" height="100"><style>.a{fill:#ea2331}.b{fill:none;stroke:#ea2331;stroke-linecap:round;stroke-linejoin:round;stroke-width:3}</style><path class="a" d="m0 0v100h37.2v-8.3h-28.9v-83.4h83.4v41.7h8.3v-50z"/><path class="a" d="m16 22h69v8h-69zm0 17h49v8h-49zm0 17h30v8h-30z"/><path fill-rule="evenodd" class="b" d="m75.5 91c8.6 0 15.5-6.9 15.5-15.5 0-8.6-6.9-15.5-15.5-15.5-8.6 0-15.5 6.9-15.5 15.5 0 8.6 6.9 15.5 15.5 15.5z"/><path fill-rule="evenodd" class="b" d="m75.5 82c3.6 0 6.5-2.9 6.5-6.5 0-3.6-2.9-6.5-6.5-6.5-3.6 0-6.5 2.9-6.5 6.5 0 3.6 2.9 6.5 6.5 6.5z"/><path class="b" d="m76 59v-3"/><path class="b" d="m59 76h-3"/><path class="b" d="m76 95v3"/><path class="b" d="m95 76h3"/></svg>