<svg version="1.2" xmlns="http://www.w3.org/2000/svg" viewBox="0 0 100 100" width="100" height="100"><style>.a{fill:none;stroke:#ea2331;stroke-linecap:round;stroke-linejoin:round;stroke-width:6.3}.b{fill:#ea2331}</style><path class="a" d="m97.2 28.2v-8.4c0-4.6-3.8-8.4-8.4-8.4h-77.4c-4.6 0-8.4 3.8-8.4 8.4v68.4c0 4.6 3.8 8.4 8.4 8.4h12.6"/><path class="a" d="m37 43.6h-34"/><path class="a" d="m62.2 3v16.8"/><path class="a" d="m37 3v16.8"/><path class="b" d="m83 60.1l-5.4 3.5c-1.1 1-1.1 2.8-0.1 3.8 1 1.1 2.7 1.1 3.8 0.1l10-8c1.1-1.1 1.1-2.8 0.1-3.8l-9.5-8.6c-1-1.1-2.7-1.1-3.8-0.1-1 1-1.1 2.7 0 3.8l4.9 3.9-32.2-0.7c-1.4 0-2.7 1.2-2.7 2.6 0 1.5 1.2 2.8 2.6 2.8z"/><path class="b" d="m57.3 79.4l5.4-3.5c1-1.1 1.1-2.8 0-3.8-1-1.1-2.7-1.1-3.7-0.1l-10.1 8c-1 1.1-1.1 2.8 0 3.8l9.4 8.6c1.1 1.1 2.7 1.1 3.8 0.1 1.1-1 1.1-2.8 0.1-3.8l-5-3.9 32.2 0.7c1.5 0 2.7-1.2 2.7-2.6 0-1.5-1.1-2.8-2.6-2.8z"/></svg>