<svg version="1.2" xmlns="http://www.w3.org/2000/svg" viewBox="0 0 513 514" width="513" height="514"><style>.a{fill:#e82737}</style><path class="a" d="m131.2 217.8c2.7 0 5.2-1 7.1-2.9 1.8-1.9 2.9-4.4 2.9-7.1 0-2.6-1.1-5.2-2.9-7-1.9-1.9-4.4-3-7.1-3-2.6 0-5.2 1.1-7.1 3-1.8 1.8-2.9 4.4-2.9 7 0 2.7 1.1 5.2 2.9 7.1 1.9 1.9 4.5 2.9 7.1 2.9z"/><path class="a" d="m274.5 204.6c-1.9-1.9-4.5-2.9-7.1-2.9-2.6 0-5.2 1-7.1 2.9-1.8 1.9-2.9 4.4-2.9 7.1 0 2.6 1.1 5.2 2.9 7 1.9 1.9 4.5 3 7.1 3 2.6 0 5.2-1.1 7.1-3 1.8-1.8 2.9-4.4 2.9-7 0-2.7-1.1-5.2-2.9-7.1z"/><path class="a" d="m302.4 186.7c2.6 0 5.2-1.1 7.1-3 1.8-1.8 2.9-4.4 2.9-7 0-2.7-1.1-5.2-2.9-7.1-1.9-1.9-4.5-2.9-7.1-2.9-2.6 0-5.2 1-7.1 2.9-1.8 1.9-2.9 4.4-2.9 7.1 0 2.6 1.1 5.2 2.9 7 1.9 1.9 4.5 3 7.1 3z"/><path fill-rule="evenodd" class="a" d="m512 277v63c0 5.5-4.5 10-10 10-16.5 0-30 13.5-30 30 0 16.5 13.5 30 30 30 5.5 0 10 4.5 10 10v63c0 16.5-13.5 30-30 30h-452c-16.5 0-30-13.5-30-30v-63c0-5.5 4.5-10 10-10 16.5 0 30-13.5 30-30 0-16.5-13.5-30-30-30-5.5 0-10-4.5-10-10v-63c0-16.5 13.5-30 30-30h120l148.9-148.8c3.9-3.9 10.2-3.9 14.1 0l101.8 101.8c3.9 3.9 3.9 10.2 0 14.1l-32.8 32.9h43.8l63.3-63.3c3.9-3.9 3.9-10.2 0-14.1l-38.2-38.2c-8.1 5.4-17.6 8.3-27.6 8.3-13.3 0-25.9-5.2-35.3-14.7-9.5-9.4-14.7-22-14.7-35.3 0-10 2.9-19.5 8.3-27.6l-38.2-38.2c-1.9-1.9-4.4-2.9-7.1-2.9-2.6 0-5.1 1-7 2.9l-165.2 165.2c-3.9 3.9-10.2 3.9-14.1 0-3.9-3.9-3.9-10.2 0-14.2l165.1-165.1c5.7-5.7 13.2-8.8 21.2-8.8 8.1 0 15.6 3.1 21.3 8.8l44.5 44.5c1.9 1.9 2.9 4.5 2.9 7.1 0 2.7-1 5.2-2.9 7.1-5.7 5.6-8.8 13.2-8.8 21.2 0 8 3.1 15.5 8.8 21.2 5.7 5.7 13.2 8.8 21.2 8.8 8 0 15.6-3.1 21.2-8.8 3.9-3.9 10.3-3.9 14.2 0l44.5 44.6c5.7 5.6 8.8 13.2 8.8 21.2 0 8-3.1 15.5-8.8 21.2l-49.1 49.1h27.9c16.5 0 30 13.5 30 30zm-333.7-30h107.5l43.5-43.5c3.9-3.9 10.2-3.9 14.1 0 3.9 3.9 3.9 10.3 0 14.2l-29.3 29.3h39.6l39.9-39.9-87.7-87.7zm313.7 30c0-5.5-4.5-10-10-10h-452c-5.5 0-10 4.5-10 10v54c22.8 4.6 40 24.8 40 49 0 24.1-17.2 44.3-40 49v54c0 5.5 4.5 10 10 10h452c5.5 0 10-4.5 10-10v-54c-22.8-4.7-40-24.9-40-49 0-24.2 17.2-44.4 40-49z"/><path class="a" d="m213.6 363.1c1.8-1.9 2.9-4.5 2.9-7.1 0-2.6-1.1-5.2-2.9-7.1-1.9-1.8-4.5-2.9-7.1-2.9-2.6 0-5.2 1.1-7.1 2.9-1.8 1.9-2.9 4.5-2.9 7.1 0 2.6 1.1 5.2 2.9 7.1 1.9 1.8 4.5 2.9 7.1 2.9 2.6 0 5.2-1.1 7.1-2.9z"/><path class="a" d="m312.6 363.1c1.8-1.9 2.9-4.5 2.9-7.1 0-2.6-1.1-5.2-2.9-7.1-1.9-1.8-4.5-2.9-7.1-2.9-2.6 0-5.2 1.1-7.1 2.9-1.8 1.9-2.9 4.5-2.9 7.1 0 2.6 1.1 5.2 2.9 7.1 1.9 1.8 4.5 2.9 7.1 2.9 2.6 0 5.2-1.1 7.1-2.9z"/><path class="a" d="m263.1 363.1c1.8-1.9 2.9-4.5 2.9-7.1 0-2.6-1.1-5.2-2.9-7.1-1.9-1.8-4.5-2.9-7.1-2.9-2.6 0-5.2 1.1-7.1 2.9-1.8 1.9-2.9 4.5-2.9 7.1 0 2.6 1.1 5.2 2.9 7.1 1.9 1.8 4.5 2.9 7.1 2.9 2.6 0 5.2-1.1 7.1-2.9z"/><path class="a" d="m157 366c2.6 0 5.2-1.1 7.1-2.9 1.8-1.9 2.9-4.5 2.9-7.1 0-2.6-1.1-5.2-2.9-7.1-1.9-1.8-4.5-2.9-7.1-2.9-2.6 0-5.2 1.1-7.1 2.9-1.8 1.9-2.9 4.5-2.9 7.1 0 2.6 1.1 5.2 2.9 7.1 1.9 1.8 4.5 2.9 7.1 2.9z"/><path class="a" d="m362.1 363.1c1.8-1.9 2.9-4.5 2.9-7.1 0-2.6-1.1-5.2-2.9-7.1-1.9-1.8-4.5-2.9-7.1-2.9-2.6 0-5.2 1.1-7.1 2.9-1.8 1.9-2.9 4.5-2.9 7.1 0 2.6 1.1 5.2 2.9 7.1 1.9 1.8 4.5 2.9 7.1 2.9 2.6 0 5.2-1.1 7.1-2.9z"/><path class="a" d="m157 414h198c5.5 0 10-4.5 10-10 0-5.5-4.5-10-10-10h-198c-5.5 0-10 4.5-10 10 0 5.5 4.5 10 10 10z"/><path class="a" d="m193.3 442c-2.6 0-5.2 1.1-7.1 2.9-1.8 1.9-2.9 4.5-2.9 7.1 0 2.6 1.1 5.2 2.9 7.1 1.9 1.8 4.5 2.9 7.1 2.9 2.7 0 5.2-1.1 7.1-2.9 1.9-1.9 2.9-4.5 2.9-7.1 0-2.6-1-5.2-2.9-7.1-1.9-1.8-4.4-2.9-7.1-2.9z"/><path class="a" d="m408 298h-304c-5.5 0-10 4.5-10 10v144c0 5.5 4.5 10 10 10h41.7c5.5 0 10-4.5 10-10 0-5.5-4.5-10-10-10h-31.7v-124h284v124h-162.3c-5.6 0-10 4.5-10 10 0 5.5 4.4 10 10 10h172.3c5.5 0 10-4.5 10-10v-144c0-5.5-4.5-10-10-10z"/></svg>