<svg xmlns="http://www.w3.org/2000/svg" width="20.109" height="16.339" viewBox="0 0 20.109 16.339">
  <path id="list-view" d="M1.885,3.375A1.885,1.885,0,1,0,3.77,5.26,1.885,1.885,0,0,0,1.885,3.375Zm0,6.284A1.885,1.885,0,1,0,3.77,11.544,1.885,1.885,0,0,0,1.885,9.659Zm0,6.284A1.885,1.885,0,1,0,3.77,17.829a1.885,1.885,0,0,0-1.885-1.885Zm17.6.628H6.913a.628.628,0,0,0-.628.628v1.257a.628.628,0,0,0,.628.628H19.481a.628.628,0,0,0,.628-.628V17.2A.628.628,0,0,0,19.481,16.572ZM19.481,4H6.913a.628.628,0,0,0-.628.628V5.889a.628.628,0,0,0,.628.628H19.481a.628.628,0,0,0,.628-.628V4.632A.628.628,0,0,0,19.481,4Zm0,6.284H6.913a.628.628,0,0,0-.628.628v1.257a.628.628,0,0,0,.628.628H19.481a.628.628,0,0,0,.628-.628V10.916A.628.628,0,0,0,19.481,10.288Z" transform="translate(0 -3.375)" fill="#bfbfbf"/>
</svg>
