<svg xmlns="http://www.w3.org/2000/svg" width="17.15" height="13.72" viewBox="0 0 17.15 13.72">
  <path id="sea-fcl" d="M13.308,9.986l1.876-1.876a.858.858,0,0,0-.344-1.423l-1.12-.36V2.572a.858.858,0,0,0-.858-.857H11.148V.643A.643.643,0,0,0,10.5,0H6.646A.643.643,0,0,0,6,.643V1.715H4.287a.858.858,0,0,0-.857.857V6.327l-1.12.36a.858.858,0,0,0-.344,1.423L3.842,9.986A3.237,3.237,0,0,1,.643,12,.643.643,0,0,0,0,12.648v.429a.643.643,0,0,0,.643.643,4.942,4.942,0,0,0,3.839-1.592A2.576,2.576,0,0,0,6.86,13.72h3.43a2.576,2.576,0,0,0,2.378-1.592,4.942,4.942,0,0,0,3.839,1.592.643.643,0,0,0,.643-.643v-.429A.643.643,0,0,0,16.507,12,3.238,3.238,0,0,1,13.308,9.986ZM5.145,3.43h6.86V5.776L8.837,4.757a.857.857,0,0,0-.525,0L5.145,5.776Z" fill="#ea2330"/>
</svg>
