<svg xmlns="http://www.w3.org/2000/svg" width="16.55" height="13.24" viewBox="0 0 16.55 13.24">
  <path id="surface" d="M16.136,9.1h-.414v-2.8a1.241,1.241,0,0,0-.365-.877L12.775,2.847a1.241,1.241,0,0,0-.877-.365h-1.14V1.241A1.242,1.242,0,0,0,9.516,0H1.241A1.242,1.242,0,0,0,0,1.241V9.516a1.242,1.242,0,0,0,1.241,1.241h.414a2.482,2.482,0,1,0,4.965,0H9.93a2.482,2.482,0,1,0,4.965,0h1.241a.415.415,0,0,0,.414-.414V9.516A.415.415,0,0,0,16.136,9.1Zm-12,2.9a1.241,1.241,0,1,1,1.241-1.241A1.242,1.242,0,0,1,4.137,12Zm8.275,0a1.241,1.241,0,1,1,1.241-1.241A1.242,1.242,0,0,1,12.413,12ZM14.481,6.62H10.757v-2.9H11.9l2.583,2.583Z" fill="#ea2330"/>
</svg>
