<svg xmlns="http://www.w3.org/2000/svg" width="512" height="512" viewBox="0 0 512 512">
  <path id="my-dashboard" d="M256,0C115.2,0,0,115.2,0,256S115.2,512,256,512,512,396.8,512,256,396.8,0,256,0Zm0,64A192,192,0,1,1,64,256,191.743,191.743,0,0,1,256,64Zm0,64a32,32,0,1,0,32,32A31.689,31.689,0,0,0,256,128ZM149.76,192a32,32,0,0,0-12.16,53.76L195.84,304c-1.28,5.12-3.84,10.24-3.84,16a64,64,0,1,0,64-64c-5.76,0-10.88,2.56-16,3.84L181.76,201.6a32,32,0,0,0-28.16-10.24,32,32,0,0,0-3.84,0ZM352,192a32,32,0,1,0,32,32A31.689,31.689,0,0,0,352,192Z" fill="#949494"/>
</svg>
