<svg xmlns="http://www.w3.org/2000/svg" width="24.61" height="24.61" viewBox="0 0 24.61 24.61">
  <g id="settings" transform="translate(-0.5 -0.5)">
    <path id="Path_90" data-name="Path 90" d="M20.485,16.993A3.493,3.493,0,1,1,16.993,13.5,3.493,3.493,0,0,1,20.485,16.993Z" transform="translate(-4.188 -4.188)" fill="none" stroke="#d1d1d1" stroke-linecap="round" stroke-linejoin="round" stroke-width="2"/>
    <path id="Path_91" data-name="Path 91" d="M20.41,15.888a1.7,1.7,0,0,0,.339,1.87l.062.062A2.057,2.057,0,1,1,17.9,20.729l-.062-.062a1.71,1.71,0,0,0-2.9,1.213v.175a2.055,2.055,0,1,1-4.111,0v-.092a1.7,1.7,0,0,0-1.11-1.552,1.7,1.7,0,0,0-1.87.339l-.062.062A2.057,2.057,0,1,1,4.881,17.9l.062-.062a1.71,1.71,0,0,0-1.213-2.9H3.555a2.055,2.055,0,1,1,0-4.111h.092A1.7,1.7,0,0,0,5.2,9.722a1.7,1.7,0,0,0-.339-1.87L4.8,7.79A2.057,2.057,0,1,1,7.707,4.881l.062.062a1.7,1.7,0,0,0,1.87.339h.082A1.7,1.7,0,0,0,10.75,3.73V3.555a2.055,2.055,0,0,1,4.111,0v.092a1.71,1.71,0,0,0,2.9,1.213L17.82,4.8a2.057,2.057,0,1,1,2.908,2.908l-.062.062a1.7,1.7,0,0,0-.339,1.87v.082A1.7,1.7,0,0,0,21.88,10.75h.175a2.055,2.055,0,1,1,0,4.111h-.092a1.7,1.7,0,0,0-1.552,1.028Z" transform="translate(0 0)" fill="none" stroke="#d1d1d1" stroke-linecap="round" stroke-linejoin="round" stroke-width="2"/>
  </g>
</svg>
