<?xml version="1.0" encoding="UTF-8"?>
<svg width="512px" height="512px" viewBox="0 0 512 512" version="1.1" xmlns="http://www.w3.org/2000/svg" xmlns:xlink="http://www.w3.org/1999/xlink">
    <!-- Generator: Sketch 63.1 (92452) - https://sketch.com -->
    <title>icons</title>
    <desc>Created with Sketch.</desc>
    <g id="icons" stroke="none" stroke-width="1" fill="none" fill-rule="evenodd">
        <path d="M398.95361,303 L121.12197,303 C117.796456,303 115.07558,305.86875 115.07558,309.375 L115,347.625 C115,351.13125 117.720876,354 121.04639,354 L398.95361,354 C402.279124,354 405,351.13125 405,347.625 L405,309.375 C405,305.86875 402.279124,303 398.95361,303 Z M398.958333,374 L121.117188,374 C117.794271,374 115.075521,376.86875 115.075521,380.375 L115,418.625 C115,422.13125 117.71875,425 121.041667,425 L398.958333,425 C402.28125,425 405,422.13125 405,418.625 L405,380.375 C405,376.86875 402.28125,374 398.958333,374 Z M398.958333,445 L121.117188,445 C117.794271,445 115.075521,447.86875 115.075521,451.375 L115,489.625 C115,493.13125 117.71875,496 121.041667,496 L398.958333,496 C402.28125,496 405,493.13125 405,489.625 L405,451.375 C405,447.86875 402.28125,445 398.958333,445 Z M398.950456,232 L121.125163,232 C117.797914,232 115.075619,234.86875 115.075619,238.375 L115,276.625 C115,280.13125 117.722295,283 121.049544,283 L398.950456,283 C402.277705,283 405,280.13125 405,276.625 L405,238.375 C405,234.86875 402.277705,232 398.950456,232 Z M478.736719,119.904478 L273.38625,28.9502433 C264.4719,25.0165856 254.452631,25.0165856 245.538281,28.9502433 L40.2632813,119.904478 C26.8298438,125.925279 18,139.893537 18,155.467343 L18,489.577812 C18,493.110015 20.716875,496 24.0375,496 L84.4125,496 C87.733125,496 90.45,493.110015 90.45,489.577812 L90.45,231.489991 C90.45,217.361178 101.468438,205.80124 115.052813,205.80124 L403.947188,205.80124 C417.531563,205.80124 428.55,217.361178 428.55,231.489991 L428.55,489.577812 C428.55,493.110015 431.266875,496 434.5875,496 L494.9625,496 C498.283125,496 501,493.110015 501,489.577812 L501,155.467343 C501,139.893537 492.170156,125.925279 478.736719,119.904478 Z" id="Shape" fill="#666666" fill-rule="nonzero"></path>
    </g>
</svg>