<?xml version="1.0" encoding="UTF-8"?>
<svg width="512px" height="512px" viewBox="0 0 512 512" version="1.1" xmlns="http://www.w3.org/2000/svg" xmlns:xlink="http://www.w3.org/1999/xlink">
    <!-- Generator: Sketch 63.1 (92452) - https://sketch.com -->
    <title>icons</title>
    <desc>Created with Sketch.</desc>
    <g id="icons" stroke="none" stroke-width="1" fill="none" fill-rule="evenodd">
        <path d="M335.46,198 L335.46,337.066667 L27.62,337.066667 C22.30014,337.066667 18,341.5168 18,347 L18,406.6 C18,428.512933 35.25828,446.333333 56.48,446.333333 L95.8242974,446.333333 C100.422656,474.474467 124.12784,496 152.68,496 C181.23216,496 204.927721,474.474467 209.535701,446.333333 L335.46,446.333333 C340.0776,474.464533 364.61822,496 393.18,496 C421.74178,496 445.419005,474.464533 449.998125,446.333333 L470.14,446.333333 C485.2434,446.333333 499,432.128667 499,416.533333 L499,320.925 C499,300.939133 485.06062,280.5311 483.3675,278.0875 L443.384375,222.833333 C434.216515,211.429867 419.8274,198 402.8,198 L335.46,198 Z M140,234 L140,322 L223,322 L223,234 L140,234 Z M43,234 L43,322 L126,322 L126,234 L43,234 Z M238,234 L238,322 L321,322 L321,234 L238,234 Z M90,131 L90,219 L173,219 L173,131 L90,131 Z M188,131 L188,219 L271,219 L271,131 L188,131 Z M137,26 L137,114 L220,114 L220,26 L137,26 Z M384.166667,248 L437.773438,248 L468.320312,289.96875 C471.569062,294.70875 480,309.254625 480,320.828125 L480,327 L384.166667,327 C374.583333,327 365,317.125 365,307.25 L365,267.75 C365,256.838125 374.583333,248 384.166667,248 Z M152.5,397 C173.73275,397 191,414.71575 191,436.5 C191,458.28425 173.73275,476 152.5,476 C131.26725,476 114,458.28425 114,436.5 C114,414.71575 131.26725,397 152.5,397 Z M393.5,397 C414.742375,397 432,414.705875 432,436.5 C432,458.294125 414.742375,476 393.5,476 C372.257625,476 355,458.294125 355,436.5 C355,414.705875 372.257625,397 393.5,397 Z" id="Shape" fill="#666666" fill-rule="nonzero"></path>
    </g>
</svg>