<svg version="1.2" xmlns="http://www.w3.org/2000/svg" viewBox="0 0 33 33" width="33" height="33"><style>.a{fill:none;stroke:#ea2330;stroke-linecap:round;stroke-linejoin:round;stroke-width:2.5}</style><path fill-rule="evenodd" class="a" d="m31.3 16.3c-0.1 6-3.7 11.5-9.3 13.8-5.6 2.3-12.1 1-16.4-3.2-4.2-4.3-5.5-10.8-3.2-16.4 2.3-5.6 7.8-9.2 13.8-9.3 2 0.1 4 0.4 5.8 1.2 1.8 0.7 3.5 1.9 4.9 3.2 1.3 1.4 2.5 3.1 3.2 4.9 0.8 1.8 1.1 3.8 1.1 5.7z"/><path class="a" d="m11.9 11.8c0.3-1.1 1-1.9 1.9-2.4 1-0.6 2-0.8 3.1-0.6 1 0.2 2 0.7 2.7 1.5 0.7 0.9 1 1.9 1 2.9 0 3-4.5 4.5-4.5 4.5"/><path class="a" d=""/></svg>