<?xml version="1.0" encoding="UTF-8"?>
<svg width="100px" height="100px" viewBox="0 0 100 100" version="1.1" xmlns="http://www.w3.org/2000/svg" xmlns:xlink="http://www.w3.org/1999/xlink">
    <!-- Generator: Sketch 63.1 (92452) - https://sketch.com -->
    <title>consolidated-customer-business-report</title>
    <desc>Created with Sketch.</desc>
    <g id="Page-1" stroke="none" stroke-width="1" fill="none" fill-rule="evenodd">
        <g id="icons">
            <g id="consolidated-customer-business-report" transform="translate(0.000000, 0.000000)">
                <rect id="Rectangle" fill="#FFFFFF" x="0" y="0" width="100" height="100"></rect>
                <g id="customer-report-line-svgrepo-com" fill="#EA3221" fill-rule="nonzero">
                    <polygon id="Path" points="0.0797193878 0.011388484 0.0797193878 99.9795007 37.5706086 99.9795007 37.5706086 95.6431305 4.41608965 95.6431305 4.41608965 4.34775875 95.3864796 4.34775875 95.3864796 49.9954446 99.7114614 49.9954446 99.7114614 0.011388484"></polygon>
                    <path d="M16,16 L84,16 L84,21 L16,21 L16,16 Z M16,28 L74,28 L74,33 L16,33 L16,28 Z M16,41 L64,41 L64,46 L16,46 L16,41 Z M16,53 L54,53 L54,58 L16,58 L16,53 Z" id="Shape"></path>
                </g>
                <g id="user-avatar-profile-svgrepo-com" transform="translate(58.000000, 58.000000)" fill="#FFFFFF" fill-rule="nonzero" stroke="#EA3221" stroke-width="4">
                    <path d="M12.6536494,20.0929947 C5.27893776,23.0323595 0.0480511721,30.2295218 0.0480511721,38.6411807 C0.0467074951,38.9961244 0.187109601,39.3369212 0.43809458,39.5879061 C0.689079559,39.8388911 1.02987642,39.9792931 1.38482015,39.9779493 L38.668441,39.9779493 C39.4038118,39.9749993 39.9976023,39.3765519 39.9948078,38.6411807 C39.9948078,30.2303819 34.7653253,23.0329334 27.3918102,20.0929947 C25.3527823,21.6919268 22.7946865,22.6572849 20.0214295,22.6572849 C17.2476253,22.6572849 14.6908544,21.6924967 12.6536494,20.0929947 Z" id="path935"></path>
                    <path d="M20.0214295,0.0312032156 C14.1540129,0.0312032156 9.37676815,4.80848765 9.37676815,10.6758643 C9.37676815,16.5432917 14.1540129,21.3309281 20.0214295,21.3309281 C25.8888462,21.3309281 30.6764932,16.5432917 30.6764932,10.6758643 C30.6764932,4.80848765 25.8888462,0.0312032156 20.0214295,0.0312032156 Z" id="path940"></path>
                </g>
            </g>
        </g>
    </g>
</svg>