<?xml version="1.0" encoding="UTF-8"?>
<svg width="100px" height="100px" viewBox="0 0 100 100" version="1.1" xmlns="http://www.w3.org/2000/svg" xmlns:xlink="http://www.w3.org/1999/xlink">
    <!-- Generator: Sketch 63.1 (92452) - https://sketch.com -->
    <title>Job-wise-Suppliers-Report </title>
    <desc>Created with Sketch.</desc>
    <g id="Page-1" stroke="none" stroke-width="1" fill="none" fill-rule="evenodd">
        <g id="icons">
            <g id="Job-wise-Suppliers-Report-">
                <rect id="Rectangle" fill="#FFFFFF" x="0" y="0" width="100" height="100"></rect>
                <path d="M74.0000001,26.7899346 C74.0000001,24.8487234 72.4640003,23.2796068 70.5714289,23.2796068 L60.2857145,23.2796068 C60.2857145,23.2796068 60.3988574,19.0531722 60.3988574,12.9100987 C60.3988574,7.20581606 55.7840002,2 50.0000001,2 C44.2160002,2 39.7554287,6.95307246 39.7554287,12.8785057 C39.7554287,18.5827883 39.7142859,23.2831172 39.7142859,23.2831172 L29.4285715,23.2831172 C27.5325715,23.2831172 26.0000001,24.8522337 26.0000001,26.7934449 C26.0000001,28.7311459 26.0000001,32.5964601 26.0000001,32.5964601 L74.0000001,32.5964601 C74.0000001,32.5929498 74.0000001,28.7276355 74.0000001,26.7899346 Z" id="Shape-path" stroke="#EA3221" stroke-width="4"></path>
                <path d="M50.0000002,16.5516387 C48.1040002,16.5516387 46.5714288,14.9790119 46.5714288,13.041311 C46.5714288,11.1000998 48.1040002,9.53098326 50.0000002,9.53098326 C51.8925716,9.53098326 53.4285716,11.1000998 53.4285716,13.041311 C53.4285716,14.9825223 51.8925716,16.5516387 50.0000002,16.5516387 Z" id="Shape-path" stroke="#EA3221" stroke-width="4"></path>
                <path d="M91.1428575,26.7899346 L74.4285717,26.5722943 L74.5005718,32.4683517 L25.5714287,32.4683517 L25.5714287,27.0110853 L8.85714289,26.7934449 C5.07200001,26.7934449 2,29.9386986 2,33.8141005 L2,90.9793447 C2,94.8547466 5.07200001,98.0000003 8.85714289,98.0000003 L91.1428575,98.0000003 C94.9280004,98.0000003 98,94.8547466 98,90.9793447 L98,33.8141005 C98,29.9351883 94.9280004,26.7899346 91.1428575,26.7899346 Z" id="Shape-path" stroke="#EA3221" stroke-width="4"></path>
                <g id="user-avatar-profile-svgrepo-com" transform="translate(13.000000, 49.000000)" fill="#FFFFFF" fill-rule="nonzero" stroke="#EA3221" stroke-width="3.31999993">
                    <path d="M10.5025288,16.6771853 C4.38151826,19.116858 0.0398824721,25.0905026 0.0398824721,32.0721793 C0.0387672202,32.3667826 0.155300965,32.649644 0.363618494,32.8579614 C0.571936023,33.0662789 0.854797408,33.1828126 1.1494007,33.1816973 L32.0948054,33.1816973 C32.7051631,33.1792488 33.1980093,32.6825374 33.1956898,32.0721793 C33.1956898,25.0912165 28.8552194,19.1173343 22.735202,16.6771853 C21.0428089,18.0042989 18.9195894,18.8055461 16.6177862,18.8055461 C14.3155287,18.8055461 12.1934089,18.0047719 10.5025288,16.6771853 Z" id="path935"></path>
                    <path d="M16.6177862,0.0258986684 C11.7478305,0.0258986684 7.78271741,3.99104467 7.78271741,8.86096722 C7.78271741,13.7309319 11.7478305,17.70467 16.6177862,17.70467 C21.4877419,17.70467 25.4614888,13.7309319 25.4614888,8.86096722 C25.4614888,3.99104467 21.4877419,0.0258986684 16.6177862,0.0258986684 Z" id="path940"></path>
                </g>
                <polygon id="Shape-path" stroke="#EA3221" stroke-width="3" points="86.2857146 80.510328 55.4285716 80.510328 55.4285716 79 86.2857146 79"></polygon>
                <polygon id="Shape-path" stroke="#EA3221" stroke-width="3" points="86.2857146 67.5 55.4285716 67.5 55.4285716 66 86.2857146 66"></polygon>
                <polygon id="Shape-path" stroke="#EA3221" stroke-width="3" points="86.2857146 54.8814092 55.4285716 54.8814092 55.4285716 53.3710812 86.2857146 53.3710812"></polygon>
            </g>
        </g>
    </g>
</svg>