<?xml version="1.0" encoding="UTF-8"?>
<svg width="100px" height="100px" viewBox="0 0 100 100" version="1.1" xmlns="http://www.w3.org/2000/svg" xmlns:xlink="http://www.w3.org/1999/xlink">
    <!-- Generator: Sketch 63.1 (92452) - https://sketch.com -->
    <title>Artboard</title>
    <desc>Created with Sketch.</desc>
    <g id="Artboard" stroke="none" stroke-width="1" fill="none" fill-rule="evenodd">
        <g id="operation" transform="translate(-46.000000, -43.000000)">
            <polygon id="Fill-1" fill="#FAFAFA" points="0.00577799964 192.599988 192.599988 192.599988 192.599988 0 0.00577799964 0"></polygon>
            <path d="M119.925272,88.6400999 L117.594812,88.6400999 C116.356394,88.6400999 115.274945,87.8644034 114.804038,86.7186261 C114.799223,86.7059145 114.793445,86.6932992 114.78863,86.6806839 C114.319649,85.54627 114.536324,84.2464126 115.403987,83.3785571 L117.060347,81.7228713 C118.232318,80.5509004 118.232318,78.6506126 117.060347,77.4786417 L113.195828,73.6139303 C112.022894,72.4418631 110.122895,72.4418631 108.950924,73.6139303 L107.295527,75.2697124 C106.427864,76.1375679 105.127814,76.3538577 103.993401,75.8854546 C103.980882,75.8802544 103.968363,75.8750542 103.954881,75.869854 C102.809874,75.3994285 102.033696,74.3179796 102.033696,73.079369 L102.033696,70.7488129 C102.033696,69.0912974 100.690311,67.7475273 99.0329878,67.7475273 L93.5671928,67.7475273 C91.9097736,67.7475273 90.5660997,69.0912011 90.5660997,70.7487166 L90.5660997,73.0791764 C90.5660997,74.3178833 89.7904033,75.3993322 88.644626,75.8697577 C88.6319144,75.8749579 88.6192991,75.8801581 88.6066838,75.8853583 C87.4723661,76.3538577 86.1725088,76.1374716 85.3046533,75.2696161 L83.6488712,73.613834 C82.476804,72.4418631 80.5766125,72.4418631 79.4045452,73.6139303 L75.5399302,77.4786417 C74.3679593,78.6506126 74.3679593,80.5509004 75.5399302,81.7228713 L77.195616,83.3785571 C78.0634715,84.2464126 78.2798576,85.54627 77.8113581,86.6806839 C77.8061579,86.6932992 77.8009577,86.7059145 77.7957575,86.7186261 C77.3253321,87.8644034 76.2438831,88.6400999 75.0052726,88.6400999 L72.6747165,88.6400999 C71.017201,88.6400999 69.6735272,89.9837737 69.6735272,91.6411929 L69.6735272,97.1069879 C69.6735272,98.7643108 71.0172973,100.107696 72.6748128,100.107696 L75.0052726,100.107696 C76.2438831,100.107696 77.3254284,100.883874 77.7957575,102.029844 C77.8009577,102.042363 77.8061579,102.054882 77.8114544,102.067401 C78.2798576,103.201815 78.0634715,104.501864 77.1957123,105.369527 L75.5399302,107.024924 C74.3679593,108.196895 74.3679593,110.096894 75.5399302,111.269828 L79.4045452,115.134347 C80.5766125,116.306318 82.476804,116.306318 83.6488712,115.134347 L85.3046533,113.477987 C86.1724125,112.610324 87.4722698,112.394612 88.6065875,112.86263 C88.6192028,112.867445 88.6319144,112.873223 88.6445297,112.878038 C89.7904033,113.348945 90.5660997,114.430394 90.5660997,115.668812 L90.5660997,117.999272 C90.5660997,119.656595 91.9097736,120.999979 93.5671928,120.999979 L99.0329878,120.999979 C100.690311,120.999979 102.033696,119.656595 102.033696,117.999272 L102.033696,115.668812 C102.033696,114.430394 102.809874,113.348945 103.955844,112.878038 C103.968363,112.873223 103.980882,112.867445 103.993401,112.86263 C105.127814,112.393649 106.427864,112.610324 107.295527,113.477987 L108.950924,115.134347 C110.122895,116.306318 112.022894,116.306318 113.195828,115.134347 L117.060347,111.269828 C118.232318,110.096894 118.232318,108.196895 117.060347,107.024924 L115.403987,105.369527 C114.536324,104.501864 114.319649,103.201815 114.78863,102.067401 C114.793445,102.054882 114.799223,102.042363 114.804038,102.029844 C115.274945,100.883874 116.356394,100.107696 117.594812,100.107696 L119.925272,100.107696 C121.582594,100.107696 122.925979,98.7643108 122.925979,97.1069879 L122.925979,91.6411929 C122.925979,89.9837737 121.582594,88.6400999 119.925272,88.6400999 Z M105.448493,94.3739941 C105.448493,99.4268548 101.352855,103.522494 96.299994,103.522494 C91.2473259,103.522494 87.151302,99.4268548 87.151302,94.3739941 C87.151302,89.3212297 91.2473259,85.2252058 96.299994,85.2252058 C101.352855,85.2252058 105.448493,89.3212297 105.448493,94.3739941 Z" id="Stroke-4" stroke="#EA3221" stroke-width="4.01253185"></path>
            <path d="M54.3095372,86.345828 C56.8450198,68.8238514 70.081165,54.7654968 87.1780734,51.011049 M87.1780734,133.947108 C69.813451,130.134591 56.4314113,115.691518 54.198407,97.7874228 M138.45339,97.7874228 C136.146043,116.289541 121.933126,131.094702 103.721835,134.293788 M103.722798,50.6651394 C121.662523,53.8168456 135.722323,68.2309324 138.342645,86.3473688 M85.1561587,58.6505275 L88.434692,49.5988095 L79.2112712,46.2581628 M130.833172,82.5225256 L139.195863,87.2928421 L144.056124,78.7721223 M108.454979,126.810315 L102.268668,134.186895 L109.784882,140.489729 M62.0997252,102.681389 L54.3152189,97.0179859 L48.5435751,104.950216" id="Stroke-5" stroke="#EA3221" stroke-width="4.01253185" stroke-linecap="round" stroke-linejoin="round"></path>
        </g>
    </g>
</svg>