<?xml version="1.0" encoding="UTF-8"?>
<svg width="100px" height="100px" viewBox="0 0 100 100" version="1.1" xmlns="http://www.w3.org/2000/svg" xmlns:xlink="http://www.w3.org/1999/xlink">
    <!-- Generator: Sketch 63.1 (92452) - https://sketch.com -->
    <title>operation-dashboard-report</title>
    <desc>Created with Sketch.</desc>
    <g id="Page-1" stroke="none" stroke-width="1" fill="none" fill-rule="evenodd">
        <g id="icons">
            <g id="operation-dashboard-report">
                <g id="analytics-chart-on-a-monitor-screen-svgrepo-com" fill="#EA3221" fill-rule="nonzero">
                    <path d="M0,0.0168887577 L0,80.9573501 L39.8561466,80.9573501 L39.8561466,98.5342331 L58.9140209,98.5342331 L58.9140209,80.9573501 L100.00039,80.9573501 L100.00039,0.0168887577 L0,0.0168887577 Z M96.730957,77.4171793 L4,77.4171793 L4,4.01688876 L96.730957,4.01688876 L96.730957,77.4171793 Z" id="Shape"></path>
                    <rect id="Rectangle" x="21.2883811" y="97.7915039" width="56.1937951" height="2.79060884"></rect>
                </g>
                <g id="document-report-svgrepo-com" transform="translate(20.000000, 17.000000)" stroke="#EA3221" stroke-linecap="round" stroke-linejoin="round" stroke-width="4">
                    <line x1="29.5" y1="-26.0163934" x2="29.5" y2="32.0163934" id="Path" transform="translate(29.500000, 3.000000) rotate(-90.000000) translate(-29.500000, -3.000000) "></line>
                    <line x1="29.5" y1="-12.0163934" x2="29.5" y2="46.0163934" id="Path" transform="translate(29.500000, 17.000000) rotate(-90.000000) translate(-29.500000, -17.000000) "></line>
                    <line x1="24.5000001" y1="6.9836065" x2="24.5000001" y2="55.0163935" id="Path" transform="translate(24.500000, 31.000000) rotate(-90.000000) translate(-24.500000, -31.000000) "></line>
                    <line x1="14.9918033" y1="30.4918033" x2="14.9918033" y2="59.5081967" id="Path" transform="translate(14.991803, 45.000000) rotate(-90.000000) translate(-14.991803, -45.000000) "></line>
                </g>
            </g>
        </g>
    </g>
</svg>