<?xml version="1.0" encoding="UTF-8"?>
<svg width="100px" height="100px" viewBox="0 0 100 100" version="1.1" xmlns="http://www.w3.org/2000/svg" xmlns:xlink="http://www.w3.org/1999/xlink">
    <!-- Generator: Sketch 63.1 (92452) - https://sketch.com -->
    <title>order-container-code</title>
    <desc>Created with Sketch.</desc>
    <g id="Page-1" stroke="none" stroke-width="1" fill="none" fill-rule="evenodd">
        <g id="Artboard">
            <g id="order-container-code">
                <path d="M43.7205087,31.25 L37.5488266,31.25 C31.0052811,35.128125 19.7056342,41.828125 11.1902753,46.875 L17.3619574,46.875 C28.0991219,40.509375 40.8362239,32.959375 43.7205087,31.25 Z M90.625293,90.625 C90.625293,92.353125 89.2253367,93.75 87.5003906,93.75 C85.7754445,93.75 84.3754883,92.353125 84.3754883,90.625 L84.3754883,59.375 C84.3754883,57.646875 85.7754445,56.25 87.5003906,56.25 C89.2253367,56.25 90.625293,57.646875 90.625293,59.375 L90.625293,90.625 Z M78.1256836,90.625 C78.1256836,92.353125 76.7288522,93.75 75.0007812,93.75 C73.2758351,93.75 71.8758789,92.353125 71.8758789,90.625 L71.8758789,59.375 C71.8758789,57.646875 73.2758351,56.25 75.0007812,56.25 C76.7288522,56.25 78.1256836,57.646875 78.1256836,59.375 L78.1256836,90.625 Z M65.6260742,90.625 C65.6260742,92.353125 64.2261179,93.75 62.5011718,93.75 C60.7762257,93.75 59.3762695,92.353125 59.3762695,90.625 L59.3762695,59.375 C59.3762695,57.646875 60.7762257,56.25 62.5011718,56.25 C64.2261179,56.25 65.6260742,57.646875 65.6260742,59.375 L65.6260742,90.625 Z M53.1264648,90.625 C53.1264648,92.353125 51.7265085,93.75 50.0015625,93.75 C48.2766164,93.75 46.8766601,92.353125 46.8766601,90.625 L46.8766601,59.375 C46.8766601,57.646875 48.2766164,56.25 50.0015625,56.25 C51.7265085,56.25 53.1264648,57.646875 53.1264648,59.375 L53.1264648,90.625 Z M40.6268554,90.625 C40.6268554,92.353125 39.2268992,93.75 37.5019531,93.75 C35.777007,93.75 34.3770507,92.353125 34.3770507,90.625 L34.3770507,59.375 C34.3770507,57.646875 35.777007,56.25 37.5019531,56.25 C39.2268992,56.25 40.6268554,57.646875 40.6268554,59.375 L40.6268554,90.625 Z M28.127246,90.625 C28.127246,92.353125 26.7272898,93.75 24.9992188,93.75 C23.2742727,93.75 21.8743164,92.353125 21.8743164,90.625 L21.8743164,59.375 C21.8743164,57.646875 23.2742727,56.25 24.9992188,56.25 C26.7272898,56.25 28.127246,57.646875 28.127246,59.375 L28.127246,90.625 Z M15.2498047,90.375 C15.2498047,92.103125 13.8498484,93.5 12.1249023,93.5 C10.3999563,93.5 9,92.103125 9,90.375 L9,59.125 C9,57.396875 10.3999563,56 12.1249023,56 C13.8498484,56 15.2498047,57.396875 15.2498047,59.125 L15.2498047,90.375 Z M94.1501828,50.040625 C94.0283116,49.96875 93.8751914,49.875 93.7501953,49.803125 L93.7501953,50 L5.92168995,50 C5.89981563,50.0125 5.87169151,50.028125 5.84981719,50.040625 C2.58741914,50.253125 0,52.934375 0,56.25 L0,93.75 C0,97.2 2.7999125,100 6.24980469,100 L93.7501953,100 C97.2032124,100 100,97.2 100,93.75 L100,56.25 C100,52.934375 97.4125809,50.25 94.1501828,50.040625 Z M49.9390644,31.259375 C52.3733633,31.259375 54.0139371,30.84375 56.0357489,29.496875 C58.1825568,28.078125 59.3762695,25.85 59.3762695,23.428125 C59.3762695,21.321875 58.304428,19.209375 56.6138558,17.7875 C53.982688,15.240625 51.5640136,15.259375 51.1015281,12.984375 C51.1015281,11.346875 51.0859036,9.89375 51.073404,8.90625 C52.6546045,8.15 53.7545702,6.553125 53.7545702,4.6875 C53.7545702,2.096875 51.6546358,0 49.0672166,0 C46.4735477,0 44.3798631,2.096875 44.3798631,4.6875 C44.3798631,6.478125 45.3954564,8.015625 46.8704103,8.803125 C46.8704103,8.959375 46.8735352,9.115625 46.8735352,9.278125 L46.879785,14.58125 C46.911034,16.040625 48.4359864,16.5 49.982813,17.04375 C54.367051,18.54375 55.4451423,21.934375 55.4451423,24.35 C55.4451423,26.578125 53.9420643,27.90625 51.7077591,28.415625 C51.0827787,28.559375 49.6609481,28.55625 48.6359801,28.39375 C47.6235118,28.234375 47.3891441,27.965625 47.0016562,27.503125 C46.6641667,27.1 46.4829224,26.665625 46.5110465,26.11875 C46.5110465,25.271875 46.5985438,24.775 45.8954408,24.121875 C45.2767101,23.546875 44.3236149,23.4375 43.4611418,23.4375 C41.9736883,23.4375 40.608106,24.121875 40.608106,25.621875 C40.608106,29.725 46.3891753,31.259375 49.9390644,31.259375 Z M82.6411675,46.875 L88.8097247,46.875 C80.3006156,41.828125 68.9978438,35.13125 62.4574232,31.25 L56.2794913,31.25 C59.1544014,32.95 71.8946283,40.50625 82.6411675,46.875 L82.6411675,46.875 Z" id="Fill-6" fill="#EA3221"></path>
                <rect id="Rectangle" fill="#F7B500" x="21" y="67" width="60" height="16"></rect>
                <text id="KOCU518" font-family="Rubik-Light_Regular, Rubik" font-size="12" font-weight="normal" fill="#333333">
                    <tspan x="25" y="79">KOCU518</tspan>
                </text>
            </g>
        </g>
    </g>
</svg>