<?xml version="1.0" encoding="UTF-8"?>
<svg width="100px" height="100px" viewBox="0 0 100 100" version="1.1" xmlns="http://www.w3.org/2000/svg" xmlns:xlink="http://www.w3.org/1999/xlink">
    <!-- Generator: Sketch 63.1 (92452) - https://sketch.com -->
    <title>order-eta/etd</title>
    <desc>Created with Sketch.</desc>
    <g id="Page-1" stroke="none" stroke-width="1" fill="none" fill-rule="evenodd">
        <g id="icons">
            <g id="order-eta/etd">
                <rect id="Rectangle" fill="#FFFFFF" x="0" y="0" width="100" height="100"></rect>
                <g id="calendar-clock-svgrepo-com" stroke-linecap="round" stroke-linejoin="round" transform="translate(3.000000, 3.000000)" stroke="#EA3221" stroke-width="6.29999971">
                    <path d="M34,40.5999985 L0,40.5999985 M94.1999969,25.1999989 L94.1999969,16.7999992 C94.1999969,12.1608054 90.4393171,8.39999962 85.7999973,8.39999962 L8.39999962,8.39999962 C3.76080583,8.39999962 0,12.1608054 0,16.7999992 L0,85.1999969 C0,89.8393167 3.76080583,93.5999966 8.39999962,93.5999966 L21,93.5999966 M59.1999979,0 L59.1999979,16.7999992 M33.999999,0 L33.999999,16.7999992" id="Shape"></path>
                </g>
                <g id="arrow-down-svgrepo-com" transform="translate(69.921464, 69.499315) rotate(-89.000000) translate(-69.921464, -69.499315) translate(45.421464, 46.499315)" fill="#EA3221" fill-rule="nonzero">
                    <path d="M49.5883435,25.8469522 L44.2048923,29.3532272 C43.1433203,30.3871344 43.1135475,32.0929156 44.1383921,33.1632434 C45.1632372,34.2335443 46.8548108,34.2630726 47.9163824,33.2291923 L57.94057,25.2034141 C59.0021406,24.1695877 59.0319153,22.4636988 58.0070693,21.3934518 L48.5471525,12.8081 C47.5223065,11.737853 45.8307328,11.7083248 44.7691622,12.7421511 C43.7075916,13.7759775 43.6778169,15.4818664 44.7026629,16.5521134 L49.6823885,20.4588002 L17.4755554,19.7319818 C16.0001302,19.7062266 14.7830352,20.8914863 14.7562335,22.3794244 C14.7310941,23.8673626 15.9060852,25.0943787 17.3815103,25.1201339 L49.5883435,25.8469522 Z" id="Path" transform="translate(36.756438, 22.985692) rotate(89.000000) translate(-36.756438, -22.985692) "></path>
                    <path d="M-1.07165269,20.5611501 L4.31179849,17.0548751 C5.37337052,16.0209679 5.40314331,14.3151867 4.37829869,13.2448589 C3.3534536,12.174558 1.66187995,12.1450297 0.600308382,13.17891 L-9.42387924,21.2046882 C-10.4854499,22.2385146 -10.5152245,23.9444035 -9.4903785,25.0146505 L-0.0304617113,33.6000023 C0.994384317,34.6702493 2.68595797,34.6997775 3.7475286,33.6659512 C4.80909922,32.6321248 4.83887389,30.9262359 3.81402786,29.8559889 L-1.16569775,25.9493021 L31.0411354,26.6761205 C32.5165606,26.7018757 33.7336556,25.516616 33.7604573,24.0286779 C33.7855966,22.5407397 32.6106056,21.3137236 31.1351804,21.2879685 L-1.07165269,20.5611501 Z" id="Path" transform="translate(11.760253, 23.422410) rotate(89.000000) translate(-11.760253, -23.422410) "></path>
                </g>
            </g>
        </g>
    </g>
</svg>