<svg xmlns="http://www.w3.org/2000/svg" width="19.5" height="22.286" viewBox="0 0 19.5 22.286">
  <path id="requests" d="M23.081,9.7a19.73,19.73,0,0,0-1.9-2.17,19.739,19.739,0,0,0-2.17-1.9,3.471,3.471,0,0,0-1.979-.918H9.026A1.743,1.743,0,0,0,7.284,6.455V22.473a1.743,1.743,0,0,0,1.741,1.741H22.258A1.743,1.743,0,0,0,24,22.473V11.678A3.471,3.471,0,0,0,23.081,9.7ZM20.2,8.514a19,19,0,0,1,1.58,1.771H18.428V6.935A18.983,18.983,0,0,1,20.2,8.514Zm2.408,13.959a.353.353,0,0,1-.348.348H9.026a.353.353,0,0,1-.348-.348V6.455a.353.353,0,0,1,.348-.348h8.009v4.875a.7.7,0,0,0,.7.7h4.875ZM16.228,2.846a3.471,3.471,0,0,0-1.979-.918H6.24A1.743,1.743,0,0,0,4.5,3.669V19.687a1.744,1.744,0,0,0,1.393,1.706V3.669a.353.353,0,0,1,.348-.348h10.6c-.21-.172-.414-.332-.608-.475Z" transform="translate(-4.499 -1.928)" fill="#ea2330"/>
</svg>
