<?xml version="1.0" encoding="UTF-8"?>
<svg width="100px" height="78px" viewBox="0 0 100 78" version="1.1" xmlns="http://www.w3.org/2000/svg" xmlns:xlink="http://www.w3.org/1999/xlink">
    <!-- Generator: Sketch 63.1 (92452) - https://sketch.com -->
    <title>vendor-payments</title>
    <desc>Created with Sketch.</desc>
    <g id="Page-1" stroke="none" stroke-width="1" fill="none" fill-rule="evenodd">
        <g id="icons" fill="#EA3221">
            <path d="M0,54.600936 L0,67.0804368 C0,73.1111556 15.3901441,78 34.3770507,78 C35.4332677,78 36.4707353,77.9812807 37.5019531,77.9532019 C37.5082029,73.5666573 38.1456829,69.3517059 39.2925221,65.3957042 C37.6831974,65.4705812 36.0519984,65.5204992 34.3770507,65.5204992 C15.3901441,65.5204992 0,60.6316547 0,54.600936 Z M79.2756476,45.9058438 C77.4194556,46.4611816 75.4726415,46.801248 73.4383301,46.801248 C71.4040186,46.801248 69.4540796,46.4611816 67.5978876,45.9089636 C55.7420081,48.5795768 46.8766601,59.1715531 46.8766601,71.8600856 L46.8766601,78 L50.9640324,78 L50.9640324,72.6275749 C50.9640324,61.9919203 57.8450673,53.0191592 67.2447736,50.2331107 C69.2103372,49.649694 71.2915221,61.6206552 73.4383301,61.6206552 C75.550764,61.6206552 77.5944502,49.6403344 79.5318896,50.2019119 C88.9847192,52.9536419 95.9126277,61.9544818 95.9126277,72.6275749 L95.9126277,78 L100,78 L100,71.8600856 C100,59.1684333 91.134652,48.5764569 79.2756476,45.9058438 Z M34.3770507,40.5614975 C42.8705353,40.5614975 50.6327927,39.5787369 56.6294803,37.9564017 C55.4701416,36.2716691 54.5451705,34.4184633 53.9358145,32.4186233 C53.6389488,31.4483421 53.4139558,30.4437423 53.2670854,29.4173033 C53.1327146,28.4688612 53.0608418,27.5016999 53.0608418,26.5189392 C53.0608418,26.450302 53.0764664,26.3847846 53.0764664,26.3161474 C47.6922596,27.4268229 41.2768351,28.0788768 34.3770507,28.0788768 C15.3901441,28.0788768 0,23.1931523 0,17.1593136 L0,29.6419343 C0,35.6726531 15.3901441,40.5614975 34.3770507,40.5614975 Z M52.3983626,45.1695532 C47.1547764,46.199112 40.9955939,46.801248 34.3770507,46.801248 C15.3901441,46.801248 0,41.9124035 0,35.8816847 L0,48.3611856 C0,54.3919043 15.3901441,59.2807488 34.3770507,59.2807488 C36.8863473,59.2807488 39.326896,59.1902724 41.6861973,59.0280389 C44.2704915,53.5276989 47.9578763,48.801088 52.3983626,45.1695532 Z M66.8885347,19.0156394 C68.8603481,20.0389584 71.0665292,20.6691732 73.4383301,20.6691732 C75.8101309,20.6691732 78.0194369,20.0420783 79.9912503,19.0187592 C82.2130558,20.8969241 83.6536358,23.6704932 83.6536358,26.8122075 C83.6536358,32.4716611 79.0819037,37.0516379 73.4383301,37.0516379 C67.7947564,37.0516379 63.2198994,32.4716611 63.2198994,26.8122075 C63.2198994,23.6673733 64.6636043,20.8938042 66.8885347,19.0156394 Z M59.7262586,22.7220511 C59.5356395,23.3647454 59.3887691,24.0230391 59.2918971,24.6969321 C59.1887754,25.3864245 59.135652,26.0946362 59.135652,26.8122075 C59.135652,27.5079397 59.1856504,28.1911924 59.2793975,28.8588456 C59.3825193,29.5857766 59.5418893,30.2939882 59.7481329,30.9803608 C61.5293272,36.8644454 66.9854067,41.1480341 73.4383301,41.1480341 C79.9131277,41.1480341 85.3817068,36.8363665 87.1441517,30.924203 C87.3441455,30.2596696 87.4941408,29.5732971 87.5941377,28.8650854 C87.6910097,28.1974321 87.7410081,27.5141794 87.7410081,26.8122075 C87.7410081,26.100876 87.6878848,25.398904 87.5878879,24.7156514 C87.487891,24.0292788 87.3378957,23.3585057 87.1441517,22.7064517 C85.3817068,16.7911684 79.9131277,12.4795008 73.4383301,12.4795008 C66.9572826,12.4795008 61.4824537,16.800528 59.7262586,22.7220511 Z M34.3770507,21.8391264 C41.792444,21.8391264 48.6422299,21.0872365 54.2576794,19.8174473 C56.320115,13.9832807 60.9387207,9.35026599 66.816662,7.33794648 C62.144933,3.0699572 49.4047061,0 34.3770507,0 C15.3901441,0 0,4.89196432 0,10.9195632 C0,16.950282 15.3901441,21.8391264 34.3770507,21.8391264 L34.3770507,21.8391264 Z" id="vendor-payments"></path>
        </g>
    </g>
</svg>