<?xml version="1.0" ?><svg enable-background="new 0 0 24 24" id="Layer_1" version="1.1" viewBox="0 0 24 24" xml:space="preserve" xmlns="http://www.w3.org/2000/svg" xmlns:xlink="http://www.w3.org/1999/xlink"><g><path d="M23,5c0-1.1030273-0.8974609-2-2-2h-3V1.5C18,1.2236328,17.7763672,1,17.5,1S17,1.2236328,17,1.5V3H8V1.5   C8,1.2236328,7.7763672,1,7.5,1S7,1.2236328,7,1.5V3H3C1.8974609,3,1,3.8969727,1,5v16c0,1.1030273,0.8974609,2,2,2h14.4990234   v-0.0001831L17.5,23c0.1298828,0,0.2578125-0.0507812,0.3535156-0.1464844l5-5   c0.0953369-0.0957031,0.1269531-0.2234497,0.1270752-0.3535156H23V5z" fill="#303C42"/><path d="M17,19v3H3c-0.5517578,0-1-0.4487305-1-1V9h20v8h-3C17.8974609,17,17,17.8969727,17,19z" fill="#FFFFFF"/><path d="M3,4h4v1C6.4482422,5,6,5.4487305,6,6s0.4482422,1,1,1s1-0.4487305,1-1V4h9v1c-0.5517578,0-1,0.4487305-1,1   s0.4482422,1,1,1s1-0.4487305,1-1V4h3c0.5517578,0,1,0.4487305,1,1v3H2V5C2,4.4487305,2.4482422,4,3,4z" fill="#D32F2F"/><rect fill="#FFFFFF" height="0.5" opacity="0.2" width="9" x="8" y="4"/><path d="M3,4.5h4V4H3C2.4482422,4,2,4.4487305,2,5v0.5C2,4.9487305,2.4482422,4.5,3,4.5z" fill="#FFFFFF" opacity="0.2"/><path d="M21,4h-3v0.5h3c0.5517578,0,1,0.4487305,1,1V5C22,4.4487305,21.5517578,4,21,4z" fill="#FFFFFF" opacity="0.2"/><path d="M18,21.2929688V19c0-0.5512695,0.4482422-1,1-1h2.2929688L18,21.2929688z" fill="#E6E6E6"/><path d="M12,10c-2.2529297,0-4,3.2255859-4,6c0,2.5048828,1.4951172,4,4,4s4-1.4951172,4-4   C16,13.2255859,14.2529297,10,12,10z" fill="#303C42"/><path d="M12,11c1.5106201,0,2.8601685,2.5310059,2.9874268,4.6754761   C14.7650757,15.8708496,14.5922241,16,14.2480469,16c-0.3730469,0-0.5405273-0.1489258-0.7939453-0.3740234   C13.1567383,15.3618164,12.7490234,15,11.9960938,15c-0.7519531,0-1.1591797,0.3618164-1.4560547,0.6264648   C10.2866211,15.8515625,10.1196289,16,9.7475586,16c-0.342041,0-0.5139771-0.128479-0.7350464-0.3227539   C9.1390991,13.5324707,10.4889526,11,12,11z" fill="#FAFAFA"/><path d="M12,19c-0.9807129,0-2.5425415-0.298645-2.9171753-2.1229858   C9.272522,16.9465332,9.4828491,17,9.7475586,17c0.7524414,0,1.159668-0.3623047,1.4570312-0.6264648   C11.4575195,16.1484375,11.6245117,16,11.9960938,16c0.3730469,0,0.5405273,0.1489258,0.7939453,0.3740234   C13.0874023,16.6381836,13.4951172,17,14.2480469,17c0.2667236,0,0.4784546-0.0540771,0.6692505-0.1243286   C14.5431519,18.7010498,12.980957,19,12,19z" fill="#D32F2F"/><path d="M14.3812866,15.9865112c0.2556152-0.0308838,0.4160767-0.144043,0.6061401-0.3110352   c-0.0623169-1.0505981-0.4191895-2.1923218-0.9434814-3.0853882C14.3267822,13.3346558,14.5,14.1688232,14.5,15   C14.5,15.3646851,14.4522095,15.6864014,14.3812866,15.9865112z" opacity="0.1"/><path d="M13.9489136,16.9639893C13.4549561,17.6403198,12.6384277,18,11.5,18   c-1.0658569,0-1.8485107-0.3164673-2.350647-0.9105835C9.6027832,18.7111206,11.0616455,19,12,19   c0.980957,0,2.5431519-0.2989502,2.9172974-2.1243286C14.7265015,16.9459229,14.5147705,17,14.2480469,17   C14.1362305,17,14.0462646,16.9784546,13.9489136,16.9639893z" opacity="0.1"/><linearGradient gradientUnits="userSpaceOnUse" id="SVGID_1_" x1="-0.2284127" x2="22.8364754" y1="7.1911955" y2="17.9465294"><stop offset="0" style="stop-color:#FFFFFF;stop-opacity:0.2"/><stop offset="1" style="stop-color:#FFFFFF;stop-opacity:0"/></linearGradient><path d="M23,5c0-1.1030273-0.8974609-2-2-2h-3V1.5C18,1.2236328,17.7763672,1,17.5,1S17,1.2236328,17,1.5V3   H8V1.5C8,1.2236328,7.7763672,1,7.5,1S7,1.2236328,7,1.5V3H3C1.8974609,3,1,3.8969727,1,5v16c0,1.1030273,0.8974609,2,2,2   h14.4990234v-0.0001831L17.5,23c0.1298828,0,0.2578125-0.0507812,0.3535156-0.1464844l5-5   c0.0953369-0.0957031,0.1269531-0.2234497,0.1270752-0.3535156H23V5z" fill="url(#SVGID_1_)"/></g><g/><g/><g/><g/><g/><g/><g/><g/><g/><g/><g/><g/><g/><g/><g/></svg>