<svg xmlns="http://www.w3.org/2000/svg" width="17.162" height="13.73" viewBox="0 0 17.162 13.73">
  <path id="cha" d="M1.346,10.072a.43.43,0,0,0,.526.3l5.8-1.555a.43.43,0,0,0,.3-.526L6.645,3.32a.43.43,0,0,0-.526-.3l-2.07.558.665,2.486L3.057,6.5,2.392,4.017.319,4.572a.43.43,0,0,0-.3.526ZM10.3,0a.857.857,0,0,0-.858.858V9.536L.158,12.067a.213.213,0,0,0-.15.263l.338,1.242a.213.213,0,0,0,.263.15l10.558-2.88a3,3,0,0,0,6-.115V0Zm3.862,12.014a1.287,1.287,0,1,1,1.287-1.287A1.288,1.288,0,0,1,14.159,12.014Z" transform="translate(0)" fill="#ea2330"/>
</svg>
