<svg xmlns="http://www.w3.org/2000/svg" width="16.215" height="14.188" viewBox="0 0 16.215 14.188">
  <path id="card-view" d="M2.571,3.856V18.044H18.785V3.856H2.571Zm6.081,9.121V9.937H12.7v3.04ZM12.7,13.99v3.04H8.651V13.99Zm0-8.107v3.04H8.651V5.883H12.7Zm-5.067,0v3.04H3.584V5.883H7.638ZM3.584,9.937H7.638v3.04H3.584V9.937Zm10.134,0h4.054v3.04H13.718V9.937Zm0-1.013V5.883h4.054v3.04ZM3.584,13.99H7.638v3.04H3.584V13.99Zm10.134,3.04V13.99h4.054v3.04Z" transform="translate(-2.571 -3.856)" opacity="0.42"/>
</svg>
