<?xml version="1.0" encoding="UTF-8"?>
<svg width="21px" height="21px" viewBox="0 0 21 21" version="1.1" xmlns="http://www.w3.org/2000/svg" xmlns:xlink="http://www.w3.org/1999/xlink">
    <!-- Generator: Sketch 63.1 (92452) - https://sketch.com -->
    <title>Slice 1</title>
    <desc>Created with Sketch.</desc>
    <g id="Page-1" stroke="none" stroke-width="1" fill="none" fill-rule="evenodd">
        <path d="M10.0848206,15.8848406 C6.99249055,15.8848406 4.47515055,13.2820706 4.47515055,10.0848206 C4.47515055,6.88757055 6.99249055,4.28484055 10.0848206,4.28484055 C13.1771506,4.28484055 15.6944906,6.88757055 15.6944906,10.0848206 C15.6944906,13.2820706 13.1771506,15.8848406 10.0848206,15.8848406 Z M10.0848206,2.83484055 C6.21415055,2.83484055 3.07273055,6.08282055 3.07273055,10.0848206 C3.07273055,14.0868206 6.21415055,17.3348406 10.0848206,17.3348406 C13.9554906,17.3348406 17.0969106,14.0868206 17.0969106,10.0848206 C17.0969106,6.08282055 13.9554906,2.83484055 10.0848206,2.83484055 Z M10.7860306,6.45982055 L9.38361055,6.45982055 L9.38361055,9.35982055 L6.57877055,9.35982055 L6.57877055,10.8098206 L9.38361055,10.8098206 L9.38361055,13.7098206 L10.7860306,13.7098206 L10.7860306,10.8098206 L13.5908706,10.8098206 L13.5908706,9.35982055 L10.7860306,9.35982055 L10.7860306,6.45982055 Z" id="Icon-material-add-circle-outline" fill="#A8A8A8" transform="translate(10.084821, 10.084821) rotate(45.000000) translate(-10.084821, -10.084821) "></path>
    </g>
</svg>