<svg xmlns="http://www.w3.org/2000/svg" width="15" height="12.188" viewBox="0 0 15 12.188">
  <path id="list-view" d="M1.406,3.375A1.406,1.406,0,1,0,2.813,4.781,1.406,1.406,0,0,0,1.406,3.375Zm0,4.688A1.406,1.406,0,1,0,2.813,9.469,1.406,1.406,0,0,0,1.406,8.063Zm0,4.688a1.406,1.406,0,1,0,1.406,1.406A1.406,1.406,0,0,0,1.406,12.75Zm13.125.469H5.156a.469.469,0,0,0-.469.469v.938a.469.469,0,0,0,.469.469h9.375A.469.469,0,0,0,15,14.625v-.937A.469.469,0,0,0,14.531,13.219Zm0-9.375H5.156a.469.469,0,0,0-.469.469V5.25a.469.469,0,0,0,.469.469h9.375A.469.469,0,0,0,15,5.25V4.313A.469.469,0,0,0,14.531,3.844Zm0,4.688H5.156A.469.469,0,0,0,4.688,9v.938a.469.469,0,0,0,.469.469h9.375A.469.469,0,0,0,15,9.938V9A.469.469,0,0,0,14.531,8.531Z" transform="translate(0 -3.375)" fill="#ea2330"/>
</svg>
