<?xml version="1.0" encoding="UTF-8"?>
<svg width="17px" height="18px" viewBox="0 0 17 18" version="1.1" xmlns="http://www.w3.org/2000/svg" xmlns:xlink="http://www.w3.org/1999/xlink">
    <!-- Generator: Sketch 63.1 (92452) - https://sketch.com -->
    <title>Slice 1</title>
    <desc>Created with Sketch.</desc>
    <g id="Page-1" stroke="none" stroke-width="1" fill="none" fill-rule="evenodd" stroke-linecap="round" stroke-linejoin="round">
        <g id="Icon-feather-database" transform="translate(1.000000, 1.000000)" stroke="#919191" stroke-width="1.5">
            <path d="M14.4,2.4 C14.4,3.72548 11.17645,4.8 7.2,4.8 C3.22355,4.8 0,3.72548 0,2.4 C0,1.07452 3.22355,0 7.2,0 C11.17645,0 14.4,1.07452 14.4,2.4 Z" id="Path-72"></path>
            <path d="M14.4,8 C14.4,9.328 11.2,10.4 7.2,10.4 C3.2,10.4 0,9.328 0,8" id="Path-73"></path>
            <path d="M0,2.4 C0,9.86666667 0,13.6 0,13.6 C0,14.928 3.2,16 7.2,16 C11.2,16 14.4,14.928 14.4,13.6 C14.4,13.6 14.4,9.86666667 14.4,2.4" id="Path-74"></path>
        </g>
    </g>
</svg>