<?xml version="1.0" encoding="UTF-8"?>
<svg width="100px" height="100px" viewBox="0 0 100 100" version="1.1" xmlns="http://www.w3.org/2000/svg" xmlns:xlink="http://www.w3.org/1999/xlink">
    <!-- Generator: Sketch 63.1 (92452) - https://sketch.com -->
    <title>Artboard</title>
    <desc>Created with Sketch.</desc>
    <g id="Artboard" stroke="none" stroke-width="1" fill="none" fill-rule="evenodd">
        <g id="profile1-svgrepo-com" transform="translate(1.000000, 3.000000)" fill-rule="nonzero" stroke="#EA2331" stroke-width="5">
            <path d="M73.5000001,24.7485001 C73.5000001,22.8130001 71.9320003,21.2485001 70.0000001,21.2485001 L59.5000001,21.2485001 C59.5000001,21.2485001 59.6155003,17.0345001 59.6155003,10.9095 C59.6155003,5.22200002 54.9045002,0.0315000001 49.0000001,0.0315000001 C43.0955002,0.0315000001 38.5420002,4.97000002 38.5420002,10.878 C38.5420002,16.5655001 38.5000001,21.2520001 38.5000001,21.2520001 L28.0000001,21.2520001 C26.0645001,21.2520001 24.5000001,22.8165001 24.5000001,24.7520001 C24.5000001,26.6840001 24.5000001,31.5350001 24.5000001,31.5350001 L73.5000001,31.5350001 C73.5000001,31.5315 73.5000001,26.6805001 73.5000001,24.7485001 Z M49.0000002,17.5315 C47.0645002,17.5315 45.5000002,15.9635001 45.5000002,14.0315 C45.5000002,12.0960001 47.0645002,10.5315 49.0000002,10.5315 C50.9320002,10.5315 52.5000002,12.0960001 52.5000002,14.0315 C52.5000002,15.9670001 50.9320002,17.5315 49.0000002,17.5315 Z M91,24.7485001 L77,24.5315001 L77.0735003,35.3955002 L21,35.3955002 L21,24.9690001 L7,24.7520001 C3.13600001,24.7520001 0,27.8880001 0,31.7520001 L0,87.7520003 C0,91.6160004 3.13600001,94.7520004 7,94.7520004 L91,94.7520004 C94.8640004,94.7520004 98,91.6160004 98,87.7520003 L98,31.7520001 C98,27.8845001 94.8640004,24.7485001 91,24.7485001 Z M28.0000001,48.0940002 C32.2280001,48.0940002 35.6580002,52.5985002 35.6580002,58.1565002 C35.6580002,63.7145003 32.2280001,68.2190003 28.0000001,68.2190003 C23.7720001,68.2190003 20.3420001,63.7145003 20.3420001,58.1565002 C20.3420001,52.5985002 23.7720001,48.0940002 28.0000001,48.0940002 Z M12.8345001,80.0665003 C12.8345001,80.0665003 13.6640001,73.4095003 15.5505001,72.1530003 C17.4370001,70.8965003 22.8655001,70.0600003 22.8655001,70.0600003 C22.8655001,70.0600003 26.3865001,73.8225003 27.8845001,73.8225003 C29.3790001,73.8225003 32.9000001,70.0600003 32.9000001,70.0600003 C32.9000001,70.0600003 38.3320002,70.8930003 40.2185002,72.1530003 C42.4340002,73.6300003 42.9870002,80.0665003 42.9870002,80.0665003 L12.8345001,80.0665003 Z M84.0000002,79.7485003 L52.5000002,79.7485003 L52.5000002,76.2485003 L84.0000002,76.2485003 L84.0000002,79.7485003 Z M84.0000002,67.7485003 L52.5000002,67.7485003 L52.5000002,64.2485003 L84.0000002,64.2485003 L84.0000002,67.7485003 Z M84.0000002,55.7485002 L52.5000002,55.7485002 L52.5000002,52.2485002 L84.0000002,52.2485002 L84.0000002,55.7485002 Z" id="Shape"></path>
        </g>
    </g>
</svg>