<?xml version="1.0" encoding="UTF-8"?>
<svg width="100px" height="100px" viewBox="0 0 100 100" version="1.1" xmlns="http://www.w3.org/2000/svg" xmlns:xlink="http://www.w3.org/1999/xlink">
    <!-- Generator: Sketch 63.1 (92452) - https://sketch.com -->
    <title>Artboard</title>
    <desc>Created with Sketch.</desc>
    <g id="Artboard" stroke="none" stroke-width="1" fill="none" fill-rule="evenodd">
        <g id="Group-2" transform="translate(3.000000, 3.000000)">
            <g id="calendar-clock-svgrepo-com" stroke="#EA2331" stroke-linecap="round" stroke-linejoin="round" stroke-width="6.29999971">
                <path d="M34,40.5999985 L0,40.5999985 M94.1999969,25.1999989 L94.1999969,16.7999992 C94.1999969,12.1608054 90.4393171,8.39999962 85.7999973,8.39999962 L8.39999962,8.39999962 C3.76080583,8.39999962 0,12.1608054 0,16.7999992 L0,85.1999969 C0,89.8393167 3.76080583,93.5999966 8.39999962,93.5999966 L21,93.5999966 M59.1999979,0 L59.1999979,16.7999992 M33.999999,0 L33.999999,16.7999992" id="Shape"></path>
            </g>
            <g id="arrow-down-svgrepo-com" transform="translate(66.921464, 66.499315) rotate(-89.000000) translate(-66.921464, -66.499315) translate(42.421464, 43.499315)" fill="#EA2331" fill-rule="nonzero">
                <path d="M49.5881425,25.8471558 L44.2046913,29.3534308 C43.1431193,30.387338 43.1133465,32.0931192 44.1381911,33.163447 C45.1630362,34.2337479 46.8546098,34.2632762 47.9161814,33.2293959 L57.940369,25.2036177 C59.0019396,24.1697913 59.0317143,22.4639024 58.0068683,21.3936554 L48.5469515,12.8083036 C47.5221055,11.7380566 45.8305318,11.7085284 44.7689612,12.7423547 C43.7073906,13.7761811 43.6776159,15.48207 44.7024619,16.552317 L49.6821875,20.4590038 L17.4753544,19.7321854 C15.9999292,19.7064302 14.7828342,20.8916899 14.7564413,22.379628 C14.7308931,23.8675662 15.9058842,25.0945823 17.3813093,25.1203375 L49.5881425,25.8471558 Z" id="Path" transform="translate(36.756441, 22.985896) rotate(89.000000) translate(-36.756441, -22.985896) "></path>
                <path d="M-1.07145218,20.5609454 L4.311999,17.0546704 C5.37357103,16.0207632 5.40334382,14.314982 4.3784992,13.2446542 C3.35365411,12.1743533 1.66208046,12.144825 0.600508891,13.1787053 L-9.42367873,21.2044835 C-10.4852494,22.2383099 -10.515024,23.9441988 -9.49017799,25.0144458 L-0.030261202,33.5997976 C0.994584826,34.6700446 2.68615848,34.6995728 3.74772911,33.6657465 C4.80929973,32.6319201 4.8390744,30.9260312 3.81422837,29.8557842 L-1.16549724,25.9490974 L31.0413359,26.6759158 C32.5167611,26.701671 33.7338561,25.5164113 33.760249,24.0284732 C33.7857971,22.540535 32.6108061,21.3135189 31.1353809,21.2877638 L-1.07145218,20.5609454 Z" id="Path" transform="translate(11.760249, 23.422206) rotate(89.000000) translate(-11.760249, -23.422206) "></path>
            </g>
        </g>
    </g>
</svg>