<?xml version="1.0" encoding="UTF-8"?>
<svg width="100px" height="100px" viewBox="0 0 100 100" version="1.1" xmlns="http://www.w3.org/2000/svg" xmlns:xlink="http://www.w3.org/1999/xlink">
    <!-- Generator: Sketch 63.1 (92452) - https://sketch.com -->
    <title>Artboard</title>
    <desc>Created with Sketch.</desc>
    <g id="Artboard" stroke="none" stroke-width="1" fill="none" fill-rule="evenodd">
        <g id="customer-report-line-svgrepo-com" transform="translate(0.000000, -0.000000)">
            <polygon id="Path" fill="#EA2331" fill-rule="nonzero" points="0 0 0 100 37.2324136 100 37.2324136 91.6609706 8.27889635 91.6609706 8.27889635 8.33902939 91.7324136 8.33902939 91.7324136 50 100 50 100 0"></polygon>
            <path d="M16,22 L85,22 L85,30 L16,30 L16,22 Z M16,39 L65,39 L65,47 L16,47 L16,39 Z M16,56 L46,56 L46,64 L16,64 L16,56 Z" id="Shape" fill="#EA2331" fill-rule="nonzero"></path>
            <g id="gps-svgrepo-com-(1)" transform="translate(56.000000, 56.000000)" stroke="#EA2331" stroke-linecap="round" stroke-linejoin="round" stroke-width="3">
                <path d="M19.5,35 C28.06034,35 35,28.06034 35,19.5 C35,10.9395773 28.06034,4 19.5,4 C10.9395773,4 4,10.9395773 4,19.5 C4,28.06034 10.9395773,35 19.5,35 Z" id="Path"></path>
                <path d="M19.5,26 C23.08995,26 26,23.08995 26,19.5 C26,15.91005 23.08995,13 19.5,13 C15.91005,13 13,15.91005 13,19.5 C13,23.08995 15.91005,26 19.5,26 Z" id="Path"></path>
                <line x1="20" y1="3" x2="20" y2="5.68434189e-14" id="Path"></line>
                <line x1="3" y1="20" x2="0" y2="20" id="Path"></line>
                <line x1="20" y1="39" x2="20" y2="42" id="Path"></line>
                <line x1="39" y1="20" x2="42" y2="20" id="Path"></line>
            </g>
        </g>
    </g>
</svg>