<svg xmlns="http://www.w3.org/2000/svg" width="16" height="18.286" viewBox="0 0 16 18.286">
  <path id="bank-details" d="M15.571,17.143h-.714V.857A.857.857,0,0,0,14,0H2a.857.857,0,0,0-.857.857V17.143H.429A.429.429,0,0,0,0,17.571v.714H16v-.714A.429.429,0,0,0,15.571,17.143Zm-11-14.429A.429.429,0,0,1,5,2.286H6.429a.429.429,0,0,1,.429.429V4.143a.429.429,0,0,1-.429.429H5a.429.429,0,0,1-.429-.429Zm0,3.429A.429.429,0,0,1,5,5.714H6.429a.429.429,0,0,1,.429.429V7.571A.429.429,0,0,1,6.429,8H5a.429.429,0,0,1-.429-.429Zm1.857,5.286H5A.429.429,0,0,1,4.571,11V9.571A.429.429,0,0,1,5,9.143H6.429a.429.429,0,0,1,.429.429V11A.429.429,0,0,1,6.429,11.429Zm2.714,5.714H6.857v-3a.429.429,0,0,1,.429-.429H8.714a.429.429,0,0,1,.429.429ZM11.429,11a.429.429,0,0,1-.429.429H9.571A.429.429,0,0,1,9.143,11V9.571a.429.429,0,0,1,.429-.429H11a.429.429,0,0,1,.429.429Zm0-3.429A.429.429,0,0,1,11,8H9.571a.429.429,0,0,1-.429-.429V6.143a.429.429,0,0,1,.429-.429H11a.429.429,0,0,1,.429.429Zm0-3.429A.429.429,0,0,1,11,4.571H9.571a.429.429,0,0,1-.429-.429V2.714a.429.429,0,0,1,.429-.429H11a.429.429,0,0,1,.429.429Z" fill="#4a69bd"/>
</svg>
