<svg version="1.2" xmlns="http://www.w3.org/2000/svg" viewBox="0 0 14 17" width="14" height="17"><style>.a{fill:#d84953}</style><path class="a" d="m9 6q-0.1 0-0.2 0 0 0-0.1 0.1 0 0.1-0.1 0.1 0 0.1 0 0.2v7.3q0 0.1 0.1 0.3 0.1 0.1 0.3 0.1 0.2 0 0.3-0.1 0.1-0.2 0.1-0.3v-7.3q0-0.1 0-0.2-0.1 0-0.1-0.1-0.1-0.1-0.2-0.1 0 0-0.1 0z"/><path class="a" d="m4.4 6q0 0-0.1 0-0.1 0-0.1 0.1-0.1 0.1-0.1 0.1-0.1 0.1-0.1 0.2v7.3q0 0.1 0.2 0.3 0.1 0.1 0.2 0.1 0.2 0 0.3-0.1 0.1-0.2 0.1-0.3v-7.3q0-0.1 0-0.2 0 0-0.1-0.1-0.1-0.1-0.1-0.1-0.1 0-0.2 0z"/><path fill-rule="evenodd" class="a" d="m0.3 4.3c-0.2-0.3-0.3-0.6-0.3-1 0.1-0.4 0.2-0.7 0.5-0.9 0.3-0.3 0.6-0.4 1-0.4h2v-0.5q0-0.3 0.1-0.6 0.1-0.2 0.3-0.5 0.2-0.2 0.5-0.3 0.3-0.1 0.6-0.1h3.4q0.3 0 0.6 0.1 0.3 0.1 0.5 0.3 0.2 0.3 0.3 0.5 0.2 0.3 0.2 0.6v0.5h1.9c0.4 0 0.8 0.1 1 0.4 0.3 0.2 0.5 0.5 0.5 0.9 0.1 0.4 0 0.7-0.2 1-0.2 0.3-0.5 0.5-0.9 0.6v9.6q0 0.2 0 0.4 0 0.2-0.1 0.3-0.1 0.2-0.2 0.4-0.1 0.2-0.2 0.3-0.2 0.2-0.3 0.3-0.2 0.1-0.4 0.2-0.1 0.1-0.3 0.1-0.2 0-0.4 0h-7.3q-0.2 0-0.4 0-0.2 0-0.4-0.1-0.2-0.1-0.3-0.2-0.2-0.1-0.3-0.3-0.2-0.1-0.3-0.3-0.1-0.2-0.2-0.4 0-0.1-0.1-0.3 0-0.2 0-0.4v-9.6c-0.3-0.1-0.6-0.3-0.8-0.6zm10.5 11.3q0.3-0.1 0.4-0.2 0.2-0.2 0.3-0.5 0.1-0.2 0.1-0.4v-9.5h-9.7v9.5q0 0.2 0 0.4 0.1 0.3 0.3 0.5 0.2 0.1 0.4 0.2 0.2 0.1 0.4 0.2h7.4q0.2-0.1 0.4-0.2zm-6.6-13.6h5v-0.5q0-0.1-0.1-0.3 0-0.1-0.1-0.2-0.1-0.1-0.3-0.2-0.1 0-0.3 0h-3.4q-0.2 0-0.3 0-0.1 0.1-0.2 0.2-0.2 0.1-0.2 0.2-0.1 0.2-0.1 0.3zm-3.2 1q-0.2 0.2-0.2 0.5 0 0.3 0.2 0.5 0.2 0.2 0.5 0.2h10.4q0.3 0 0.5-0.2 0.2-0.2 0.2-0.5 0-0.3-0.2-0.5-0.2-0.2-0.5-0.2h-10.4q-0.3 0-0.5 0.2z"/><path class="a" d="m6.7 6q-0.1 0-0.1 0-0.1 0-0.2 0.1 0 0.1 0 0.1-0.1 0.1-0.1 0.2v7.3q0 0.1 0.1 0.3 0.2 0.1 0.3 0.1 0.2 0 0.3-0.1 0.1-0.2 0.1-0.3v-7.3q0-0.1 0-0.2-0.1 0-0.1-0.1-0.1-0.1-0.1-0.1-0.1 0-0.2 0z"/></svg>