<svg xmlns="http://www.w3.org/2000/svg" width="627.47" height="537.522" viewBox="0 0 627.47 537.522">
  <g id="Group_84" data-name="Group 84" transform="translate(-2321.623 5340)">
    <path id="Path_83" data-name="Path 83" d="M202.241,312.915H177.146C181.112,194.714,278.184,99.625,397.7,99.625c64.712,0,125.465,28.392,167.727,77.26a23.886,23.886,0,1,0,36.316-31.037A268.61,268.61,0,0,0,397.7,52.079c-145.275,0-264.137,116.219-268.1,260.835l-26.411,0c-15.187,0-24.431,16.509-16.509,29.056L136.2,424.518c7.264,12.548,25.753,12.548,33.676,0l49.526-82.543c7.269-12.548-2.639-29.056-17.168-29.056Z" transform="translate(2237.843 -5392.079)" fill="#3d3d3d"/>
    <path id="Path_84" data-name="Path 84" d="M692.891,275.493,643.366,192.95c-7.264-12.548-25.753-12.548-33.676,0l-49.526,82.543a18.977,18.977,0,0,0,16.509,29.056h25.094C598.459,423.411,501.389,518.5,381.872,518.5c-64.712,0-125.465-28.392-167.727-77.26a23.886,23.886,0,0,0-36.316,31.037,268.61,268.61,0,0,0,204.046,93.769c145.275,0,264.137-116.219,268.1-260.835h25.753c15.182,0,24.432-16.513,17.168-29.719Z" transform="translate(2253.674 -5368.524)" fill="#3d3d3d"/>
    <path id="Path_85" data-name="Path 85" d="M368.664,138.88A83.986,83.986,0,0,0,284.8,222.745v28.392c-9.9,3.3-19.811,6.605-29.714,11.225-5.283,2.639-9.245,7.923-9.245,13.87V416.885a14.942,14.942,0,0,0,15.187,15.187H474.318A14.942,14.942,0,0,0,489.5,416.885l0-140.653a14.936,14.936,0,0,0-9.245-13.87c-9.9-4.625-19.811-7.923-29.714-11.225V222.745c1.981-46.887-35.661-83.865-81.884-83.865Zm22.451,235.742a5.139,5.139,0,0,1-1.322,5.283,8.149,8.149,0,0,1-5.283,2.639H352.151a6.007,6.007,0,0,1-5.283-2.639c-1.322-1.322-1.981-3.961-1.322-5.283L356.112,335c-8.586-4.625-14.527-13.206-14.527-23.772a26.411,26.411,0,1,1,52.823,0c0,10.567-5.942,19.148-14.527,23.772Zm23.772-132.729a267.753,267.753,0,0,0-91.788,0V222.082a46.223,46.223,0,1,1,92.446,0l0,19.811Z" transform="translate(2266.881 -5376.526)" fill="#3d3d3d"/>
  </g>
</svg>
