<?xml version="1.0"?>
<svg xmlns="http://www.w3.org/2000/svg" xmlns:xlink="http://www.w3.org/1999/xlink" xmlns:svgjs="http://svgjs.com/svgjs" version="1.1" width="512" height="512" x="0" y="0" viewBox="0 0 512 512.00072" style="enable-background:new 0 0 512 512" xml:space="preserve" class=""><g>
<g xmlns="http://www.w3.org/2000/svg" id="surface1">
<path d="M 348.945312 221.640625 L 348.945312 124.746094 C 348.945312 121.972656 347.664062 119.410156 345.851562 117.382812 L 237.21875 3.308594 C 235.191406 1.175781 232.308594 0 229.429688 0 L 57.195312 0 C 25.398438 0 0 25.929688 0 57.730469 L 0 383.414062 C 0 415.214844 25.398438 440.71875 57.195312 440.71875 L 193.148438 440.71875 C 218.863281 483.402344 265.605469 512 318.851562 512 C 399.738281 512 465.792969 446.265625 465.792969 365.273438 C 465.902344 294.523438 415.105469 235.40625 348.945312 221.640625 Z M 240.101562 37.457031 L 312.984375 114.179688 L 265.710938 114.179688 C 251.625 114.179688 240.101562 102.550781 240.101562 88.464844 Z M 57.195312 419.375 C 37.242188 419.375 21.34375 403.367188 21.34375 383.414062 L 21.34375 57.730469 C 21.34375 37.667969 37.242188 21.34375 57.195312 21.34375 L 218.757812 21.34375 L 218.757812 88.464844 C 218.757812 114.394531 239.78125 135.523438 265.710938 135.523438 L 327.601562 135.523438 L 327.601562 218.863281 C 324.402344 218.757812 321.839844 218.4375 319.066406 218.4375 C 281.824219 218.4375 247.570312 232.738281 221.746094 255.148438 L 86.222656 255.148438 C 80.351562 255.148438 75.550781 259.949219 75.550781 265.816406 C 75.550781 271.6875 80.351562 276.488281 86.222656 276.488281 L 201.898438 276.488281 C 194.320312 287.160156 188.023438 297.832031 183.117188 309.570312 L 86.222656 309.570312 C 80.351562 309.570312 75.550781 314.371094 75.550781 320.242188 C 75.550781 326.109375 80.351562 330.914062 86.222656 330.914062 L 176.179688 330.914062 C 173.511719 341.585938 172.125 353.429688 172.125 365.273438 C 172.125 384.480469 175.859375 403.476562 182.582031 419.484375 L 57.195312 419.484375 Z M 318.960938 490.765625 C 249.8125 490.765625 193.574219 434.527344 193.574219 365.378906 C 193.574219 296.230469 249.703125 239.992188 318.960938 239.992188 C 388.214844 239.992188 444.34375 296.230469 444.34375 365.378906 C 444.34375 434.527344 388.109375 490.765625 318.960938 490.765625 Z M 318.960938 490.765625 " style="" fill="#ffffff" data-original="#000000" class=""/>
<path d="M 86.222656 223.027344 L 194.320312 223.027344 C 200.191406 223.027344 204.992188 218.222656 204.992188 212.355469 C 204.992188 206.484375 200.191406 201.683594 194.320312 201.683594 L 86.222656 201.683594 C 80.351562 201.683594 75.550781 206.484375 75.550781 212.355469 C 75.550781 218.222656 80.351562 223.027344 86.222656 223.027344 Z M 86.222656 223.027344 " style="" fill="#ffffff" data-original="#000000" class=""/>
<path d="M 377.222656 343.929688 C 373.0625 339.769531 366.339844 339.769531 362.175781 343.929688 C 358.015625 348.09375 358.015625 354.8125 362.175781 358.976562 L 376.371094 373.167969 C 390.03125 386.828125 390.03125 409.34375 376.371094 423.214844 C 362.710938 436.984375 340.195312 436.875 326.324219 423.214844 L 312.128906 409.023438 C 307.96875 404.863281 301.246094 404.863281 297.082031 409.023438 C 292.921875 413.1875 292.921875 419.910156 297.082031 424.070312 L 311.382812 438.371094 C 322.480469 449.359375 336.992188 454.804688 351.507812 454.804688 C 366.019531 454.804688 380.53125 449.253906 391.628906 438.261719 C 413.613281 416.066406 413.507812 380 391.628906 358.015625 Z M 377.222656 343.929688 " style="" fill="#ffffff" data-original="#000000" class=""/>
<path d="M 311.277344 308.074219 L 325.46875 322.269531 C 329.632812 326.429688 336.351562 326.429688 340.515625 322.269531 C 344.675781 318.105469 344.675781 311.382812 340.515625 307.222656 L 326.214844 292.921875 C 304.019531 270.941406 267.953125 271.046875 245.96875 293.027344 C 223.988281 315.222656 224.09375 351.292969 245.96875 373.277344 L 260.160156 387.46875 C 262.296875 389.601562 264.964844 390.5625 267.738281 390.5625 C 270.515625 390.5625 273.179688 389.496094 275.316406 387.46875 C 279.476562 383.304688 279.476562 376.582031 275.316406 372.421875 L 261.121094 358.230469 C 247.355469 344.570312 247.464844 322.054688 261.121094 308.179688 C 274.886719 294.414062 297.296875 294.414062 311.277344 308.074219 Z M 311.277344 308.074219 " style="" fill="#ffffff" data-original="#000000" class=""/>
<path d="M 337.101562 394.726562 C 339.875 394.726562 342.542969 393.65625 344.675781 391.628906 C 348.839844 387.46875 348.839844 380.746094 344.675781 376.582031 L 307.96875 339.875 C 303.808594 335.714844 297.085938 335.714844 292.921875 339.875 C 288.761719 344.039062 288.761719 350.757812 292.921875 354.921875 L 329.632812 391.628906 C 331.65625 393.65625 334.433594 394.726562 337.101562 394.726562 Z M 337.101562 394.726562 " style="" fill="#ffffff" data-original="#000000" class=""/>
</g>
</g></svg>
