<?xml version="1.0" encoding="UTF-8"?>
<svg width="19px" height="19px" viewBox="0 0 19 19" version="1.1" xmlns="http://www.w3.org/2000/svg" xmlns:xlink="http://www.w3.org/1999/xlink">
    <!-- Generator: Sketch 63.1 (92452) - https://sketch.com -->
    <title>Slice 1</title>
    <desc>Created with Sketch.</desc>
    <g id="Page-1" stroke="none" stroke-width="1" fill="none" fill-rule="evenodd" opacity="0.69" stroke-linecap="round" stroke-linejoin="round">
        <g id="Icon-feather-settings" style="mix-blend-mode: luminosity;" transform="translate(1.000000, 1.000000)" stroke="#2365EA" stroke-width="1.5">
            <path d="M10.6836415,8.5 C10.6836415,9.70598599 9.705996,10.6836415 8.5,10.6836415 C7.29401401,10.6836415 6.31635848,9.705996 6.31635848,8.5 C6.31635848,7.29401401 7.294004,6.31635848 8.5,6.31635848 C9.70598599,6.31635848 10.6836415,7.294004 10.6836415,8.5 Z" id="Path-75"></path>
            <path d="M14.2181884,10.8181736 C14.0077382,11.2950134 14.1087183,11.851943 14.4731885,12.2245428 C14.4731885,12.2245428 14.5195485,12.2709028 14.5195485,12.2709028 C14.8097487,12.5607826 14.9728088,12.9541324 14.9728088,13.3643121 C14.9728088,13.7744919 14.8097487,14.1678417 14.5195485,14.4577215 C14.2296684,14.7479213 13.8363181,14.9109812 13.4261379,14.9109812 C13.0159577,14.9109812 12.6226074,14.7479213 12.3327273,14.4577215 C12.3327273,14.4577215 12.2863572,14.4113515 12.2863572,14.4113515 C11.913757,14.0468817 11.3568367,13.9459018 10.8799964,14.1563517 C10.4129061,14.3565416 10.1092959,14.8149913 10.1072659,15.323171 C10.1072659,15.323171 10.1072659,15.4545309 10.1072659,15.4545309 C10.1072659,16.3080604 9.41534554,17 8.56181504,17 C7.70828453,17 7.01636413,16.3080604 7.01636413,15.4545309 C7.01636413,15.4545309 7.01636413,15.384981 7.01636413,15.384981 C7.00412412,14.8615913 6.67317393,14.3988815 6.18181364,14.2181616 C5.70497336,14.0077118 5.14805303,14.1086917 4.77545281,14.4731615 C4.77545281,14.4731615 4.72909278,14.5195215 4.72909278,14.5195215 C4.43921261,14.8097213 4.04586238,14.9727812 3.63568214,14.9727812 C3.2255019,14.9727812 2.83215167,14.8097213 2.5422715,14.5195215 C2.25207132,14.2296416 2.08901123,13.8362919 2.08901123,13.4261121 C2.08901123,13.0159323 2.25207132,12.6225826 2.5422715,12.3327027 C2.5422715,12.3327027 2.58863152,12.2863428 2.58863152,12.2863428 C2.95310174,11.913743 3.0540818,11.3568233 2.84363167,10.8799836 C2.64344155,10.4128939 2.18499129,10.1092841 1.67681099,10.1072541 C1.67681099,10.1072541 1.54545091,10.1072541 1.54545091,10.1072541 C0.691920407,10.1072541 0,9.41533446 0,8.56180496 C0,7.70827547 0.691920407,7.01635587 1.54545091,7.01635587 C1.54545091,7.01635587 1.61500095,7.01635587 1.61500095,7.01635587 C2.13839126,7.00411588 2.60111153,6.67316607 2.78182164,6.18180636 C2.99227176,5.70496664 2.8912917,5.14804697 2.52682149,4.77544719 C2.52682149,4.77544719 2.48046146,4.72908722 2.48046146,4.72908722 C2.19026129,4.43920739 2.02720119,4.04585762 2.02720119,3.63567786 C2.02720119,3.2254981 2.19026129,2.83214833 2.48046146,2.5422685 C2.77034163,2.25206868 3.16369186,2.08900877 3.5738721,2.08900877 C3.98405234,2.08900877 4.37740257,2.25206868 4.66728275,2.5422685 C4.66728275,2.5422685 4.71364277,2.58862848 4.71364277,2.58862848 C5.08624299,2.95309826 5.64316332,3.0540782 6.1200036,2.84362833 C6.1200036,2.84362833 6.18182364,2.84362833 6.18182364,2.84362833 C6.64891391,2.64343845 6.95252409,2.18498871 6.95455409,1.67680901 C6.95455409,1.67680901 6.95455409,1.54544909 6.95455409,1.54544909 C6.95455409,0.691919593 7.6464745,0 8.5,0 C9.3535355,0 10.0454559,0.691919593 10.0454559,1.54544909 C10.0454559,1.54544909 10.0454559,1.61499905 10.0454559,1.61499905 C10.0474859,2.12317875 10.3510961,2.58162848 10.8181864,2.78181836 C11.2950266,2.99226824 11.851947,2.8912883 12.2245572,2.52681851 C12.2245572,2.52681851 12.2709172,2.48045854 12.2709172,2.48045854 C12.5607974,2.19025871 12.9541476,2.02719881 13.3643279,2.02719881 C13.7745081,2.02719881 14.1678583,2.19025871 14.4577385,2.48045854 C14.7479387,2.77033837 14.9109988,3.16368814 14.9109988,3.5738679 C14.9109988,3.98404766 14.7479387,4.37739743 14.4577385,4.66727725 C14.4577385,4.66727725 14.4113785,4.71363723 14.4113785,4.71363723 C14.0469083,5.08623701 13.9459282,5.64315668 14.1563783,6.1199964 C14.1563783,6.1199964 14.1563783,6.18181636 14.1563783,6.18181636 C14.3565684,6.64890609 14.8150187,6.95251591 15.323199,6.95454591 C15.323199,6.95454591 15.4545691,6.95454591 15.4545691,6.95454591 C16.3080996,6.95454591 17,7.6464655 17,8.5 C17,9.3535245 16.3080996,10.0454441 15.4545691,10.0454441 C15.4545691,10.0454441 15.3850191,10.0454441 15.3850191,10.0454441 C14.8768388,10.0474741 14.4183885,10.3510839 14.2181984,10.8181736 C14.2181984,10.8181736 14.2181884,10.8181736 14.2181884,10.8181736 Z" id="Path-76"></path>
        </g>
    </g>
</svg>