<?xml version="1.0" encoding="UTF-8"?>
<svg width="16px" height="16px" viewBox="0 0 16 16" version="1.1" xmlns="http://www.w3.org/2000/svg" xmlns:xlink="http://www.w3.org/1999/xlink">
    <!-- Generator: Sketch 63.1 (92452) - https://sketch.com -->
    <title>Slice 1</title>
    <desc>Created with Sketch.</desc>
    <g id="Page-1" stroke="none" stroke-width="1" fill="none" fill-rule="evenodd" stroke-linecap="round" stroke-linejoin="round">
        <g id="Icon-feather-git-merge" transform="translate(1.000000, 1.000000)" stroke="#2365EA" stroke-width="1.5">
            <path d="M13.39999,11.1683388 C13.39999,12.4008571 12.4008371,13.4 11.1683288,13.4 C9.93581038,13.4 8.9366675,12.4008471 8.9366675,11.1683388 C8.9366675,9.93582038 9.93582038,8.9366775 11.1683288,8.9366775 C12.4008471,8.9366775 13.39999,9.93583038 13.39999,11.1683388 Z" id="Path-255"></path>
            <path d="M4.46333249,2.23166125 C4.46333249,3.46416962 3.46417962,4.4633225 2.23167124,4.4633225 C0.999152871,4.4633225 0,3.46416962 0,2.23166125 C0,0.999142879 0.999162864,0 2.23167124,0 C3.46417962,0 4.46333249,0.999152871 4.46333249,2.23166125 Z" id="Path-256"></path>
            <path d="M2.23665,13.4 C2.23665,7.44222584 2.23665,4.46333876 2.23665,4.46333876 C2.23665,8.16502861 5.23634,11.1658372 8.93665,11.1658372" id="Path-257"></path>
        </g>
    </g>
</svg>