<?xml version="1.0" encoding="UTF-8"?>
<svg width="14px" height="16px" viewBox="0 0 14 16" version="1.1" xmlns="http://www.w3.org/2000/svg" xmlns:xlink="http://www.w3.org/1999/xlink">
    <!-- Generator: Sketch 63.1 (92452) - https://sketch.com -->
    <title>Slice 1</title>
    <desc>Created with Sketch.</desc>
    <g id="Page-1" stroke="none" stroke-width="1" fill="none" fill-rule="evenodd">
        <path d="M13.30185,10.96777 C12.71697,10.33929 11.62258,9.39385 11.62258,6.29688 C11.62258,3.94463 9.97328,2.06163 7.7494,1.59965 C7.7494,1.59965 7.7494,0.96875 7.7494,0.96875 C7.7494,0.43382 7.31588,1e-05 6.78126,1e-05 C6.24663,1e-05 5.81312,0.43382 5.81312,0.96875 C5.81312,0.96875 5.81312,1.59965 5.81312,1.59965 C3.58923,2.06162 1.93994,3.94463 1.93994,6.29688 C1.93994,9.39385 0.84556,10.33929 0.26067,10.96777 C0.07903,11.16303 -0.0015,11.39644 2.99999999e-05,11.62501 C0.00335,12.12149 0.39297,12.59376 0.9718,12.59376 C0.9718,12.59376 12.59075,12.59376 12.59075,12.59376 C13.16958,12.59376 13.5595,12.12149 13.56253,11.62501 C13.56404,11.39645 13.48352,11.16273 13.30188,10.96777 C13.30188,10.96777 13.30185,10.96777 13.30185,10.96777 Z M6.78125,15.50001 C7.85051,15.50001 8.71784,14.63268 8.71784,13.56251 C8.71784,13.56251 4.84466,13.56251 4.84466,13.56251 C4.84466,14.63268 5.71199,15.50001 6.78125,15.50001 Z" id="Icon-awesome-bell" fill="#FFFFFF"></path>
    </g>
</svg>