<?xml version="1.0" encoding="UTF-8"?>
<svg width="29px" height="29px" viewBox="0 0 29 29" version="1.1" xmlns="http://www.w3.org/2000/svg" xmlns:xlink="http://www.w3.org/1999/xlink">
    <!-- Generator: Sketch 63.1 (92452) - https://sketch.com -->
    <title>Slice 1</title>
    <desc>Created with Sketch.</desc>
    <g id="Page-1" stroke="none" stroke-width="1" fill="none" fill-rule="evenodd">
        <path d="M0,14.5 C0,6.49187 6.49187,0 14.5,0 C22.50813,0 29,6.49187 29,14.5 C29,22.50813 22.50813,29 14.5,29 C6.49187,29 0,22.50813 0,14.5 Z" id="Ellipse-1" fill="#FFFFFF" opacity="0.21"></path>
        <path d="M17.67238,16.34926 C16.7236867,16.34926 16.24934,16.34926 16.24934,16.34926 C15.67599,16.61269 15.03808,16.76248 14.36659,16.76248 C13.6951,16.76248 13.05977,16.61269 12.48384,16.34926 C12.48384,16.34926 11.0608,16.34926 11.0608,16.34926 C9.23487,16.34926 7.75501,17.82912 7.75501,19.65505 C7.75501,19.65505 7.75501,20.06827 7.75501,20.06827 C7.75501,20.75267 8.31028,21.30794 8.99468,21.30794 C8.99468,21.30794 19.73851,21.30794 19.73851,21.30794 C20.42291,21.30794 20.97818,20.75267 20.97818,20.06827 C20.97818,20.06827 20.97818,19.65505 20.97818,19.65505 C20.97818,17.82912 19.49832,16.34926 17.67239,16.34926 C17.67239,16.34926 17.6723867,16.34926 17.67238,16.34926 Z M14.36659,15.52281 C16.4198,15.52281 18.08561,13.857 18.08561,11.80379 C18.08561,9.75058 16.4198,8.08477 14.36659,8.08477 C12.31338,8.08477 10.64757,9.75058 10.64757,11.80379 C10.64757,13.857 12.31338,15.52281 14.36659,15.52281 Z" id="Icon-awesome-user-alt" fill="#F6F6F6"></path>
    </g>
</svg>