<svg xmlns="http://www.w3.org/2000/svg" width="25" height="25" viewBox="0 0 25 25">
  <g id="debug" transform="translate(-144 -421)">
    <circle id="Ellipse_154" data-name="Ellipse 154" cx="12.5" cy="12.5" r="12.5" transform="translate(144 421)" fill="#967ad3"/>
    <path id="Icon_awesome-bug" data-name="Icon awesome-bug" d="M14,7.9a.887.887,0,0,1-.893.85H11.594v.438a3.922,3.922,0,0,1-.372,1.672l1.647,1.647a.875.875,0,0,1-1.237,1.237l-1.5-1.5a3.921,3.921,0,0,1-2.478.878V6.453a.328.328,0,0,0-.328-.328H6.672a.328.328,0,0,0-.328.328v6.672a3.921,3.921,0,0,1-2.478-.878l-1.5,1.5a.875.875,0,0,1-1.237-1.237l1.647-1.647a3.922,3.922,0,0,1-.372-1.672V8.75H.893A.887.887,0,0,1,0,7.9.875.875,0,0,1,.875,7H2.406V5.394L1.131,4.119A.875.875,0,0,1,2.369,2.881L3.862,4.375h6.275l1.494-1.494a.875.875,0,0,1,1.237,1.237L11.594,5.394V7h1.531A.875.875,0,0,1,14,7.9ZM7.027,0A3.062,3.062,0,0,0,3.965,3.062H10.09A3.062,3.062,0,0,0,7.027,0Z" transform="translate(150 425.5)" fill="#fff"/>
  </g>
</svg>
