<svg xmlns="http://www.w3.org/2000/svg" width="13.247" height="15.14" viewBox="0 0 13.247 15.14">
  <path id="attachment" d="M12.906,6.763l-.96-.96-4.8,4.8a2.037,2.037,0,0,0,2.881,2.881l5.763-5.762a3.4,3.4,0,0,0-4.8-4.8L4.935,8.973l-.013.013a4.735,4.735,0,0,0,6.7,6.7l.012-.013h0l4.13-4.129-.961-.96-4.13,4.129-.013.012A3.377,3.377,0,0,1,5.882,9.946L5.9,9.933h0l6.051-6.05a2.037,2.037,0,0,1,2.881,2.881L9.064,12.525a.679.679,0,0,1-.961-.96l4.8-4.8Z" transform="translate(-3.535 -1.928)" fill="#44c6ac"/>
</svg>
