<svg xmlns="http://www.w3.org/2000/svg" width="394.601" height="463.419" viewBox="0 0 394.601 463.419">
  <g id="Group_352" data-name="Group 352" transform="translate(-676.743 7564.71)">
    <path id="Path_77" data-name="Path 77" d="M387.832,135.471H421.26L378,93.52v30.808c.654,11.143,9.83,11.143,9.83,11.143Z" transform="translate(528.818 -7644.472)"/>
    <g id="Group_302" data-name="Group 302">
      <path id="Path_78" data-name="Path 78" d="M353.831,421.953H229.29V408.844H357.109c3.932-14.421,11.143-27.53,20.319-39.331l-148.138,0V356.409H389.226a114.073,114.073,0,0,1,78-30.808h2.62V159.11l-.654-8.523H413.477s-15.733.654-15.733-17.041V81.766H207.656a26.292,26.292,0,0,0-26.217,26.217V448.832a26.292,26.292,0,0,0,26.217,26.217h150.1a120.306,120.306,0,0,1-5.244-34.74,56.7,56.7,0,0,1,1.312-18.353ZM229.29,146.651H338.755V159.76H229.29Zm0,52.439H422.656V212.2H229.29Zm0,52.439H422.656v13.108H229.29Zm0,52.44H422.656v13.108H229.29Z" transform="translate(495.305 -7646.476)" fill="#3d3d3d"/>
      <path id="Path_79" data-name="Path 79" d="M446.559,304.08a101.687,101.687,0,0,0-101.6,101.6c0,55.718,45.882,101.6,101.6,101.6a101.6,101.6,0,1,0,0-203.2ZM440,452.874l-7.864,10.489L376.42,424.031l8.523-11.8L428.86,443.7l66.86-95.043,11.8,8.523Z" transform="translate(523.185 -7608.571)" fill="#3d3d3d"/>
    </g>
  </g>
</svg>
