<svg xmlns="http://www.w3.org/2000/svg" width="480.48" height="435.13" viewBox="0 0 480.48 435.13">
  <g id="Group_82" data-name="Group 82" transform="translate(-572.52 841)">
    <path id="Path_74" data-name="Path 74" d="M146.16,342.16,474.32,142.8l21.84,31.359a16.809,16.809,0,0,0,14,7.281H512.4A16.8,16.8,0,0,0,525.84,170.8l33.039-85.68A16.8,16.8,0,0,0,543.2,62.158H450.8A16.8,16.8,0,0,0,437.359,89.6l17.922,25.762L128.8,313.041Z" transform="translate(462.763 -903.153)" fill="#3d3d3d"/>
    <path id="Path_75" data-name="Path 75" d="M557.76,224.56h-33.6V463.68h-29.68V267.12h-33.6V463.68H430.638V288.4h-33.6V463.68H366.8V325.36H333.2V463.68H302.958V357.28h-33.6v106.4H239.118V378.559h-33.6V463.68h-29.68v-58.8h-33.6v58.8H109.757v33.6h480.48v-33.6H557.76Z" transform="translate(462.763 -903.153)" fill="#3d3d3d"/>
  </g>
</svg>
