<svg xmlns="http://www.w3.org/2000/svg" width="378.376" height="472.567" viewBox="0 0 378.376 472.567">
  <path id="Path_107" data-name="Path 107" d="M174.27,43.723H414.75q5.045,0,10.09,5.047L535.83,159.76v1.684h1.684v1.684H539.2v339.71c0,8.41-5.047,13.453-13.453,13.453H174.274a13.265,13.265,0,0,1-13.453-13.453V57.2c0-6.727,6.727-13.453,13.453-13.453Zm326.25,119.4L421.481,84.084v79.039ZM260.04,279.163a13.262,13.262,0,0,1-13.453-13.453c0-8.41,5.047-15.137,13.453-15.137H439.98a15.073,15.073,0,0,1,15.137,15.137c0,6.727-6.727,13.453-15.137,13.453Zm0,77.355c-8.41,0-13.453-6.727-13.453-15.137a13.265,13.265,0,0,1,13.453-13.453H439.98c8.41,0,15.137,6.727,15.137,13.453a15.073,15.073,0,0,1-15.137,15.137Zm0,72.312c-8.41,0-13.453-5.047-13.453-13.453s5.047-13.453,13.453-13.453H439.98c8.41,0,15.137,5.047,15.137,13.453S448.39,428.83,439.98,428.83Zm0-232.07a13.262,13.262,0,0,1-13.453-13.453c0-8.41,5.047-15.137,13.453-15.137h50.449c8.41,0,13.453,6.727,13.453,15.137a13.265,13.265,0,0,1-13.453,13.453Z" transform="translate(-160.821 -43.723)" fill="#3d3d3d" fill-rule="evenodd"/>
</svg>
