<svg xmlns="http://www.w3.org/2000/svg" width="30" height="32" viewBox="0 0 30 32">
  <g id="tasks" transform="translate(-98 -183)">
    <rect id="Rectangle_2" data-name="Rectangle 2" width="30" height="30" transform="translate(98 184)" fill="none" />
    <g id="Icon_feather-clipboard" data-name="Icon feather-clipboard" transform="translate(95 181)">
      <path id="Path_5" data-name="Path 5" d="M24,6h3a3,3,0,0,1,3,3V30a3,3,0,0,1-3,3H9a3,3,0,0,1-3-3V9A3,3,0,0,1,9,6h3"
        fill="none" stroke="#2277ff" stroke-linecap="round" stroke-linejoin="round" stroke-width="2" />
      <path id="Path_6" data-name="Path 6"
        d="M13.5,3h9A1.5,1.5,0,0,1,24,4.5v3A1.5,1.5,0,0,1,22.5,9h-9A1.5,1.5,0,0,1,12,7.5v-3A1.5,1.5,0,0,1,13.5,3Z"
        fill="none" stroke="#2277ff" stroke-linecap="round" stroke-linejoin="round" stroke-width="2" />
    </g>
  </g>
</svg>