<svg xmlns="http://www.w3.org/2000/svg" width="30" height="30" viewBox="0 0 30 30">
  <g id="timeline" transform="translate(-92 -234)">
    <rect id="Rectangle_3" data-name="Rectangle 3" width="30" height="30" transform="translate(92 234)" fill="none"/>
    <path id="Icon_awesome-tasks" data-name="Icon awesome-tasks" d="M8.18,2.455a.7.7,0,0,0-1,0L3.453,6.164l-1.33-1.3a.7.7,0,0,0-1,0l-.92.921a.7.7,0,0,0,0,1L3,9.563a.749.749,0,0,0,1.032,0l.913-.915,4.23-4.23a.708.708,0,0,0,.005-1Zm0,9.328a.7.7,0,0,0-1,0L3.453,15.516l-1.33-1.295a.7.7,0,0,0-1,0l-.92.919a.7.7,0,0,0,0,1L2.988,18.92a.748.748,0,0,0,1.031,0L4.939,18l4.23-4.232a.7.7,0,0,0,.005-.99ZM3.75,21.937a2.813,2.813,0,1,0,0,5.625,2.813,2.813,0,1,0,0-5.625Zm25.313.938H12.188a.938.938,0,0,0-.938.938v1.875a.937.937,0,0,0,.938.938H29.063A.937.937,0,0,0,30,25.687V23.812A.937.937,0,0,0,29.063,22.875Zm0-18.75H12.188a.938.938,0,0,0-.938.938V6.937a.938.938,0,0,0,.938.938H29.063A.937.937,0,0,0,30,6.937V5.062A.937.937,0,0,0,29.063,4.125Zm0,9.375H12.188a.937.937,0,0,0-.938.938v1.875a.937.937,0,0,0,.938.938H29.063A.937.937,0,0,0,30,16.312V14.437A.937.937,0,0,0,29.063,13.5Z" transform="translate(92 233.752)" fill="#9e9e9e"/>
  </g>
</svg>
