<svg xmlns="http://www.w3.org/2000/svg" width="512" height="512" viewBox="0 0 65.184 65.182">
  <path id="Path_481" data-name="Path 481" d="M179.838,96.531a1.377,1.377,0,0,1,1.377-1.377h20.2a1.377,1.377,0,1,1,0,2.754h-20.2A1.377,1.377,0,0,1,179.838,96.531Zm43.149,0v55.083h0a1.377,1.377,0,0,1-1.377,1.377H159.181a1.377,1.377,0,0,1-1.377-1.377V96.531a1.378,1.378,0,0,1,1.377-1.377h3.672a1.377,1.377,0,0,1,0,2.754h-2.3v11.935h59.675V97.908h-2.3a1.377,1.377,0,1,1,0-2.754h3.672a1.378,1.378,0,0,1,1.377,1.377ZM220.233,112.6H160.559v37.641h59.675Zm-53.25-10.557V89.187a1.378,1.378,0,0,1,1.377-1.377h5.509a1.377,1.377,0,0,1,1.377,1.377V102.04a1.377,1.377,0,0,1-1.377,1.377h-5.509A1.378,1.378,0,0,1,166.984,102.04Zm2.754-1.377h2.754v-10.1h-2.754Zm35.8,1.377V89.187a1.377,1.377,0,0,1,1.377-1.377h5.509a1.378,1.378,0,0,1,1.377,1.377V102.04a1.378,1.378,0,0,1-1.377,1.377H206.92A1.377,1.377,0,0,1,205.543,102.04Zm2.754-1.377h2.754v-10.1H208.3Zm-41.313,27.083V120.4a1.378,1.378,0,0,1,1.377-1.377h9.181a1.378,1.378,0,0,1,1.377,1.377v7.345a1.377,1.377,0,0,1-1.377,1.376h-9.181A1.377,1.377,0,0,1,166.985,127.745Zm2.754-1.377h6.427v-4.59h-6.427Zm15.607,1.377V120.4a1.378,1.378,0,0,1,1.377-1.377H195.9a1.378,1.378,0,0,1,1.377,1.377v7.345a1.377,1.377,0,0,1-1.377,1.376h-9.181A1.377,1.377,0,0,1,185.346,127.745Zm2.754-1.377h6.427v-4.59H188.1Zm13.771,1.377V120.4a1.378,1.378,0,0,1,1.377-1.377h9.181a1.378,1.378,0,0,1,1.377,1.377v7.345a1.377,1.377,0,0,1-1.377,1.376h-9.181A1.377,1.377,0,0,1,201.871,127.745Zm2.754-1.377h6.427v-4.59h-6.427Zm-37.641,16.066V135.09a1.378,1.378,0,0,1,1.377-1.377h9.181a1.378,1.378,0,0,1,1.377,1.377v7.345a1.378,1.378,0,0,1-1.377,1.377h-9.181A1.378,1.378,0,0,1,166.984,142.434Zm2.754-1.377h6.427v-4.59h-6.427Zm15.607,1.377V135.09a1.378,1.378,0,0,1,1.377-1.377H195.9a1.378,1.378,0,0,1,1.377,1.377v7.345a1.378,1.378,0,0,1-1.377,1.377h-9.181A1.378,1.378,0,0,1,185.346,142.434Zm2.754-1.377h6.427v-4.59H188.1Zm13.771,1.377V135.09a1.378,1.378,0,0,1,1.377-1.377h9.181a1.378,1.378,0,0,1,1.377,1.377v7.345a1.378,1.378,0,0,1-1.377,1.377h-9.181A1.378,1.378,0,0,1,201.871,142.434Zm2.754-1.377h6.427v-4.59h-6.427Z" transform="translate(-157.804 -87.81)" fill="#666161"/>
</svg>
