<?xml version="1.0" encoding="UTF-8"?>
<svg width="512px" height="512px" viewBox="0 0 512 512" version="1.1" xmlns="http://www.w3.org/2000/svg" xmlns:xlink="http://www.w3.org/1999/xlink">
    <!-- Generator: Sketch 63.1 (92452) - https://sketch.com -->
    <title>icons</title>
    <desc>Created with Sketch.</desc>
    <g id="icons" stroke="none" stroke-width="1" fill="none" fill-rule="evenodd">
        <g id="ship-svgrepo-com-(3)" transform="translate(-20.000000, 26.000000)" fill-rule="nonzero">
            <path d="M497.323543,252.993182 L452.101649,239.237959 L452.101649,98.0283704 C452.101649,91.9562349 447.297292,87.0321091 441.372848,87.0321091 L319.854162,87.0321091 L319.854162,10.9962613 C319.854162,4.9241258 315.049805,0 309.125361,0 L247.874639,0 C241.949122,0 237.145838,4.9241258 237.145838,10.9962613 L237.145838,87.0321091 L115.627152,87.0321091 C109.701635,87.0321091 104.898351,91.9562349 104.898351,98.0283704 L104.898351,239.237959 L59.6764568,252.993182 C55.1231538,254.378711 52,258.667253 52,263.535298 C52,308.930064 79.2200399,370.933583 132.924124,448.007477 L88.5991573,448.007477 C82.6736408,448.007477 77.8703568,452.931603 77.8703568,459.003739 C77.8703568,465.075874 82.6736408,470 88.5991573,470 L154.026602,470 L193.582616,470 L278.498927,470 L402.972325,470 C406.36048,470 409.551226,468.359358 411.57575,465.575104 C473.567833,380.306796 505,312.331207 505,263.536398 C505,258.667253 501.876846,254.378711 497.323543,252.993182 Z M298.39656,21.9925225 L298.39656,32.6687926 L283.298992,32.6687926 C277.373476,32.6687926 272.570192,37.5929184 272.570192,43.6650539 C272.570192,49.7371894 277.373476,54.6613152 283.298992,54.6613152 L298.39656,54.6613152 L298.39656,87.0321091 L258.603439,87.0321091 L258.603439,21.9925225 L298.39656,21.9925225 Z M397.571447,448.007477 L289.2288,448.007477 L289.2288,340.581702 C289.2288,334.509567 284.424444,329.585441 278.5,329.585441 C272.574483,329.585441 267.771199,334.509567 267.771199,340.581702 L267.771199,448.007477 L193.583689,448.007477 L159.429626,448.007477 C106.631052,374.608533 77.2201914,313.982846 73.7955583,271.639543 L278.5,209.373213 L483.205514,271.639543 C479.780881,313.981746 450.37002,374.607433 397.571447,448.007477 Z" id="Shape" fill="#0D5385"></path>
            <path d="M512.130933,453 L460.869067,453 C455.971568,453 452,456.8063 452,461.5 C452,466.1937 455.971568,470 460.869067,470 L512.130933,470 C517.028432,470 521,466.1937 521,461.5 C521,456.8063 517.028432,453 512.130933,453 Z" id="Path" fill="#0D5385"></path>
            <path d="M62.1309328,453 L46.8690672,453 C41.9715683,453 38,456.8063 38,461.5 C38,466.1937 41.9715683,470 46.8690672,470 L62.1309328,470 C67.0284317,470 71,466.1937 71,461.5 C71,456.8063 67.0284317,453 62.1309328,453 Z" id="Path" fill="#0D5385"></path>
            <path d="M280,254.449048 L280,287.550952 C280,292.768716 283.80545,297 288.5,297 C293.1937,297 297,292.768716 297,287.550952 L297,254.449048 C297,249.230339 293.19455,245 288.5,245 C283.80545,245 280,249.231284 280,254.449048 Z" id="Path" fill="#0D5385"></path>
            <path d="M165.5,139 C160.813117,139 157,142.813117 157,147.5 C157,152.186883 160.813117,156 165.5,156 C170.186883,156 174,152.186883 174,147.5 C174,142.813117 170.186883,139 165.5,139 Z" id="Path" fill="#FFFFFF"></path>
            <path d="M217.5,139 C212.813117,139 209,142.813117 209,147.5 C209,152.186883 212.813117,156 217.5,156 C222.186883,156 226,152.186883 226,147.5 C226,142.813117 222.187594,139 217.5,139 Z" id="Path" fill="#FFFFFF"></path>
            <path d="M340.5,156 C345.186883,156 349,152.186883 349,147.5 C349,142.813117 345.186883,139 340.5,139 C335.813117,139 332,142.813117 332,147.5 C332,152.186883 335.813117,156 340.5,156 Z" id="Path" fill="#FFFFFF"></path>
            <path d="M278,147.5 C278,142.813117 274.187594,139 269.5,139 C264.812406,139 261,142.813117 261,147.5 C261,152.186883 264.813117,156 269.5,156 C274.186883,156 278,152.186883 278,147.5 Z" id="Path" fill="#FFFFFF"></path>
            <path d="M392.5,156 C397.186883,156 401,152.186883 401,147.5 C401,142.813117 397.186883,139 392.5,139 C387.813117,139 384,142.813117 384,147.5 C384,152.186883 387.813117,156 392.5,156 Z" id="Path" fill="#FFFFFF"></path>
            <path d="M339.273113,284.796007 L422.824578,313.500478 C423.808883,313.83815 424.80341,314 425.78056,314 C430.171604,314 434.229435,310.750196 435.562285,305.715386 C437.19155,299.556942 434.131312,293.060827 428.727343,291.203629 L345.175878,262.499158 C339.769866,260.641961 334.068459,264.128136 332.438172,270.285415 C330.807884,276.442694 333.868123,282.93881 339.273113,284.796007 Z" id="Path" fill="#0D5385"></path>
            <path d="M146.273113,284.796007 L229.824578,313.500478 C230.808883,313.83815 231.80341,314 232.78056,314 C237.171604,314 241.229435,310.750196 242.562285,305.715386 C244.19155,299.556942 241.131312,293.060827 235.727343,291.203629 L152.175878,262.499158 C146.769866,260.641961 141.068459,264.128136 139.438172,270.285415 C137.807884,276.442694 140.868123,282.93881 146.273113,284.796007 Z" id="Path" fill="#0D5385" transform="translate(191.000000, 288.000000) scale(-1, 1) translate(-191.000000, -288.000000) "></path>
        </g>
    </g>
</svg>