<?xml version="1.0" encoding="UTF-8"?>
<svg width="512px" height="512px" viewBox="0 0 512 512" version="1.1" xmlns="http://www.w3.org/2000/svg" xmlns:xlink="http://www.w3.org/1999/xlink">
    <!-- Generator: Sketch 63.1 (92452) - https://sketch.com -->
    <title>icons</title>
    <desc>Created with Sketch.</desc>
    <g id="icons" stroke="none" stroke-width="1" fill="none" fill-rule="evenodd">
        <g id="flying-airplane-svgrepo-com" transform="translate(264.239811, 249.905205) rotate(4.000000) translate(-264.239811, -249.905205) translate(24.239811, -1.594795)" fill-rule="nonzero">
            <path d="M451.030444,25.0359176 C428.846972,3.67731143 391.395733,21.1204337 373.566912,39.9877236 C373.566912,39.9877236 331.758557,81.8254179 314.415093,97.7271034 C310.308046,101.492743 309.312942,103.255467 309.312942,103.255467 L225.974139,194.992065 C225.974139,194.992065 228.273458,192.411673 221.768792,198.587622 C198.198706,220.96658 159.91795,263.167698 138.846855,285.58824 C131.939773,292.938405 122.825184,291.83347 122.825184,291.83347 L58.5783599,283.532123 C50.4073819,282.913202 39.0002877,287.413729 33.2068142,293.532568 L4.07068109,324.358697 C-1.71540116,330.478839 -0.844470747,339.345684 6.02195941,344.066415 L112.795318,370.967939 C119.661748,375.686065 121.534187,377.661397 125.992316,384.913837 L149.761202,496.114882 C154.224258,503.371231 162.609581,504.293748 168.395663,498.177514 L197.539188,467.344871 C203.320342,461.228637 207.5863,449.159044 207.011018,440.530647 L199.390685,375.00851 C199.390685,375.00851 198.25983,366.673285 202.588613,362.033339 C223.987386,339.099419 266.590296,295.229061 289.028765,271.190205 C295.988817,263.735801 292.779311,266.858207 292.779311,266.858207 L376.715814,179.202074 C376.715814,179.202074 379.962769,177.088293 383.825906,172.673764 C397.669634,156.851561 439.065314,109.254653 439.065314,109.254653 C456.886743,90.3951807 474.302888,47.4408243 451.030444,25.0359176 Z" id="Path" fill="#0D5385"></path>
            <path d="M221.613803,0.0852538978 L169.30365,2.15685672 L239.063637,167.070865 C242.870456,180.775618 245.264042,197.279269 246.316246,216.568596 C247.338642,235.31148 246.976983,247.769915 244.112328,253.618929 L202.944113,420.82675 L256.872083,424.247529 L380.27994,208.486511 L221.613803,0.0852538978 Z" id="Path" stroke="#0D5385" stroke-width="20" transform="translate(276.228186, 212.078211) rotate(-42.000000) translate(-276.228186, -212.078211) "></path>
        </g>
    </g>
</svg>