<svg xmlns="http://www.w3.org/2000/svg" width="32" height="30" viewBox="0 0 32 30">
  <g id="members" transform="translate(-109 -68)">
    <g id="Icon_feather-users" data-name="Icon feather-users" transform="translate(108.5 66.5)">
      <path id="Path_1" data-name="Path 1" d="M25.5,31.5v-3a6,6,0,0,0-6-6H7.5a6,6,0,0,0-6,6v3" transform="translate(0 -2.455)" fill="none" stroke="#ea2330" stroke-linecap="round" stroke-linejoin="round" stroke-width="2"/>
      <path id="Path_2" data-name="Path 2" d="M19.5,10.5a6,6,0,1,1-6-6A6,6,0,0,1,19.5,10.5Z" transform="translate(-0.857)" fill="none" stroke="#ea2330" stroke-linecap="round" stroke-linejoin="round" stroke-width="2"/>
      <path id="Path_3" data-name="Path 3" d="M34.5,31.5v-3A6,6,0,0,0,30,22.7" transform="translate(-3 -2.455)" fill="none" stroke="#ea2330" stroke-linecap="round" stroke-linejoin="round" stroke-width="2"/>
      <path id="Path_4" data-name="Path 4" d="M24,4.7A6,6,0,0,1,24,16.32" transform="translate(-2.369)" fill="none" stroke="#ea2330" stroke-linecap="round" stroke-linejoin="round" stroke-width="2"/>
    </g>
    <rect id="Rectangle_1" data-name="Rectangle 1" width="30" height="30" transform="translate(110 68)" fill="none"/>
  </g>
</svg>
