<svg id="shoulder_logo_en" xmlns="http://www.w3.org/2000/svg" width="166.656" height="58.464" viewBox="0 0 166.656 58.464">
  <path id="Shape" d="M0,5.952C0,3.168,4.128,0,9.024,0,14.4,0,18.24,2.592,18.24,5.952c0,4.128-5.088,6.24-9.216,6.24S0,10.272,0,5.952Z" transform="translate(135.36 17.568)" fill="#005eac"/>
  <path id="Path" d="M2.3,0c.768,0,2.208.1,2.4,1.536H3.552c0-.384-.384-.768-1.248-.768-.672,0-1.152.192-1.152.672,0,1.152,3.552,0,3.552,2.112C4.7,4.8,3.456,5.088,2.4,5.088.672,5.088,0,4.416,0,3.36H1.056c0,.672.576.96,1.344.96.576,0,1.152-.192,1.152-.672C3.552,2.5,0,3.456,0,1.536.192.48,1.152,0,2.3,0" transform="translate(40.896 21.696)" fill="#005eac"/>
  <path id="Path-2" data-name="Path" d="M0,0H.96V1.824H4.032V0h.96V4.8h-.96V2.592H.96V4.8H0Z" transform="translate(46.464 21.888)" fill="#005eac"/>
  <rect id="Rectangle" width="1.056" height="4.8" transform="translate(52.512 21.888)" fill="#005eac"/>
  <path id="Path-3" data-name="Path" d="M0,0H1.44L3.072,3.744,4.8,0H6.24V4.8H5.28V.768h0L3.552,4.8H2.688L.864.768h0V4.8H0Z" transform="translate(54.624 21.888)" fill="#005eac"/>
  <rect id="Rectangle-2" data-name="Rectangle" width="1.056" height="4.8" transform="translate(61.92 21.888)" fill="#005eac"/>
  <path id="Path-4" data-name="Path" d="M0,4.032,3.36.672H.288V0H4.7V.672l-3.36,3.36H4.7V4.8H0Z" transform="translate(63.552 21.888)" fill="#005eac"/>
  <path id="Path-5" data-name="Path" d="M0,0H1.056V2.688c0,.672,0,1.44,1.344,1.44s1.344-.768,1.344-1.44V0H4.8V2.784c0,.768,0,2.208-2.4,2.208C.1,4.992,0,3.552,0,2.784Z" transform="translate(68.832 21.888)" fill="#005eac"/>
  <path id="Path-6" data-name="Path" d="M4.32,1.728C4.224.96,3.648.576,2.784.576c-.96,0-1.632.576-1.632,1.92A1.663,1.663,0,0,0,2.88,4.224,1.266,1.266,0,0,0,4.32,2.976H5.376c-.1.96-.768,2.016-2.784,2.016A2.393,2.393,0,0,1,0,2.5,2.374,2.374,0,0,1,2.688,0C4.32,0,5.184.864,5.28,1.92H4.32Z" transform="translate(76.224 21.888)" fill="#005eac"/>
  <path id="Shape-2" data-name="Shape" d="M0,2.5C0,1.152.768,0,2.88,0,4.9,0,5.76,1.152,5.76,2.5s-.768,2.5-2.881,2.5C.864,4.992,0,3.84,0,2.5Z" transform="translate(81.984 21.792)" fill="#005eac"/>
  <path id="Shape-3" data-name="Shape" d="M3.744,4.9c-.1-.1-.1-.384-.1-.768,0-.672-.1-1.153-.864-1.153H1.056V4.9H0V0H3.072C4.32,0,4.7.576,4.7,1.344A1.1,1.1,0,0,1,3.936,2.5c.575.1.671.576.671,1.344A2.246,2.246,0,0,0,4.8,4.9Z" transform="translate(88.128 21.888)" fill="#005eac"/>
  <path id="Shape-4" data-name="Shape" d="M0,4.8V0H3.072A1.406,1.406,0,0,1,4.608,1.536,1.386,1.386,0,0,1,3.072,2.976H1.056V4.8Z" transform="translate(93.408 21.888)" fill="#005eac"/>
  <path id="Shape-5" data-name="Shape" d="M0,2.5C0,1.152.768,0,2.88,0,4.9,0,5.664,1.152,5.664,2.5s-.768,2.5-2.785,2.5C.768,4.992,0,3.84,0,2.5Z" transform="translate(98.4 21.792)" fill="#005eac"/>
  <path id="Shape-6" data-name="Shape" d="M3.744,4.9c-.1-.1-.1-.384-.1-.768,0-.672-.1-1.153-.864-1.153H1.056V4.9H0V0H3.072C4.32,0,4.7.576,4.7,1.344A1.1,1.1,0,0,1,3.936,2.5c.575.1.671.576.671,1.344A2.246,2.246,0,0,0,4.8,4.9Z" transform="translate(104.544 21.888)" fill="#005eac"/>
  <path id="Shape-7" data-name="Shape" d="M4.32,4.8,3.84,3.648h-2.3L1.056,4.8H0L2.112,0H3.36L5.472,4.8Z" transform="translate(109.728 21.888)" fill="#005eac"/>
  <path id="Path-7" data-name="Path" d="M1.824.672H0V0H4.608V.672H2.784V4.8h-.96Z" transform="translate(114.912 21.888)" fill="#005eac"/>
  <rect id="Rectangle-3" data-name="Rectangle" width="1.056" height="4.8" transform="translate(120 21.888)" fill="#005eac"/>
  <path id="Shape-8" data-name="Shape" d="M0,2.5C0,1.152.768,0,2.88,0,4.9,0,5.76,1.152,5.76,2.5s-.768,2.5-2.881,2.5S0,3.84,0,2.5Z" transform="translate(121.728 21.792)" fill="#005eac"/>
  <path id="Path-8" data-name="Path" d="M0,0H1.152l2.88,3.552h0V0h.96V4.8H3.84L.96,1.152h0V4.8H0Z" transform="translate(127.968 21.888)" fill="#005eac"/>
  <path id="Path-9" data-name="Path" d="M0,0V26.784H9.984V8.256h4.224V26.784h9.984V8.256h4.32V26.784H38.5V0Z" transform="translate(81.024 31.68)" fill="#005eac"/>
  <rect id="Rectangle-4" data-name="Rectangle" width="11.136" height="7.104" transform="translate(66.432 31.68)" fill="#005eac"/>
  <path id="Path-10" data-name="Path" d="M10.08,9.408V0H0V26.784H10.08V16.8H20.832v9.984h10.08V9.408Z" transform="translate(46.08 31.68)" fill="#005eac"/>
  <path id="Path-11" data-name="Path" d="M27.648,14.112,12.864,7.584c-.48-.192-.384-.768.1-.768H30.72V0H8.448C4.512,0,.576.192.576,3.552V7.1c0,3.264,3.072,4.32,4.608,5.184L19.2,18.72c.672.288.672,1.248-.1,1.248H0v6.816H23.04c5.472,0,8.256-.96,8.256-4.416V18.816c-.1-2.4-1.728-3.744-3.648-4.7" transform="translate(12.192 31.68)" fill="#005eac"/>
  <path id="Path-12" data-name="Path" d="M14.112,19.968,31.392,5.856h0V0H.1V6.816H16.032L0,19.968v6.816H31.776V19.968Z" transform="translate(122.4 31.68)" fill="#005eac"/>
  <path id="Path-13" data-name="Path" d="M2.4.768H0V0H6.048V.768h-2.4V7.776H2.4Z" transform="translate(68.544)" fill="#005eac"/>
  <path id="Path-14" data-name="Path" d="M2.4.768H0V0H6.048V.768h-2.4V7.776H2.4Z" transform="translate(0)" fill="#005eac"/>
  <path id="Shape-9" data-name="Shape" d="M0,2.784C0,.96.864,0,2.5,0s2.5.96,2.5,2.784S4.128,5.568,2.5,5.568,0,4.608,0,2.784Z" transform="translate(5.184 2.304)" fill="#005eac"/>
  <path id="Shape-10" data-name="Shape" d="M0,5.088C0,3.456.672,2.3,2.112,2.3a1.41,1.41,0,0,1,1.44.864V0H4.7V7.776H3.552V6.912a1.546,1.546,0,0,1-1.44.96C.48,7.872,0,6.624,0,5.088Z" transform="translate(11.232)" fill="#005eac"/>
  <path id="Shape-11" data-name="Shape" d="M0,4.224C0,2.592,2.4,2.5,3.168,2.5v-.48c0-.575,0-1.535-.768-1.535s-.864.575-.864,1.152H.288C.384.864.672,0,2.4,0,4.224,0,4.416.96,4.416,2.016V5.472H3.264V4.7h-.1a1.887,1.887,0,0,1-1.632.864A1.423,1.423,0,0,1,0,4.224Z" transform="translate(17.088 2.304)" fill="#005eac"/>
  <path id="Path-15" data-name="Path" d="M2.112,5.376,0,0H1.248l1.44,3.84h0L4.032,0H5.184L2.3,7.776h-.96Z" transform="translate(22.368 2.4)" fill="#005eac"/>
  <path id="Path-16" data-name="Path" d="M.48,0H1.824L.864,2.592H0Z" transform="translate(28.32)" fill="#005eac"/>
  <path id="Path-17" data-name="Path" d="M.48,0H1.728L.864,2.5H0Z" transform="translate(64.416 6.432)" fill="#005eac"/>
  <path id="Path-18" data-name="Path" d="M3.168,1.056A3.225,3.225,0,0,0,1.824.576c-.384,0-.768.192-.768.576,0,.96,2.592,1.056,2.592,2.784,0,1.152-.96,1.632-2.112,1.632A5.44,5.44,0,0,1,0,5.376V4.32A3.22,3.22,0,0,0,1.536,4.9c.672,0,.96-.288.96-.672C2.5,3.264,0,3.072,0,1.536,0,.768.576,0,2.016,0A10.826,10.826,0,0,1,3.36.192v.864Z" transform="translate(30.144 2.4)" fill="#005eac"/>
  <path id="Path-19" data-name="Path" d="M.48,0H1.728L.864,2.592H0Z" transform="translate(116.448)" fill="#005eac"/>
  <path id="Path-20" data-name="Path" d="M3.264,1.056a2.358,2.358,0,0,0-1.44-.48c-.384,0-.768.192-.768.576,0,.96,2.592,1.056,2.592,2.784,0,1.152-.96,1.632-2.112,1.632A5.44,5.44,0,0,1,0,5.376V4.32A3.22,3.22,0,0,0,1.536,4.9c.672,0,.96-.288.96-.672C2.5,3.264,0,3.072,0,1.536,0,.768.576,0,2.016,0A10.826,10.826,0,0,1,3.36.192v.864Z" transform="translate(118.176 2.4)" fill="#005eac"/>
  <path id="Path-21" data-name="Path" d="M0,0H1.152L2.4,5.952h0L4.32,0h.96L7.2,5.952h.1L8.448,0H9.5L7.968,7.776H6.624L4.8,1.824H4.7L2.784,7.776H1.536Z" transform="translate(38.88)" fill="#005eac"/>
  <path id="Shape-12" data-name="Shape" d="M0,2.784C0,.96.864,0,2.5,0s2.5.96,2.5,2.784S4.128,5.568,2.5,5.568C.768,5.568,0,4.608,0,2.784Z" transform="translate(48.672 2.304)" fill="#005eac"/>
  <path id="Path-22" data-name="Path" d="M0,.1H1.152V1.44h0C1.536.768,1.92,0,2.976,0V1.152c-1.056.1-1.824.384-1.824,1.824v2.4H0Z" transform="translate(54.816 2.304)" fill="#005eac"/>
  <path id="Path-23" data-name="Path" d="M0,0H1.152V4.608L3.072,2.4H4.416L2.3,4.7,4.7,7.776H3.264L1.152,5.088h0V7.776H0Z" transform="translate(59.04)" fill="#005eac"/>
  <path id="Shape-13" data-name="Shape" d="M0,2.784C0,.96.864,0,2.5,0s2.5.96,2.5,2.784S4.128,5.568,2.5,5.568,0,4.608,0,2.784Z" transform="translate(73.92 2.304)" fill="#005eac"/>
  <path id="Path-24" data-name="Path" d="M0,.1H1.152V1.344h0A1.91,1.91,0,0,1,2.88,0,1.461,1.461,0,0,1,4.32,1.344h0A1.91,1.91,0,0,1,6.048,0C7.2,0,7.488.96,7.488,1.824V5.472H6.336V2.016c0-.576-.1-1.152-.672-1.152-1.056,0-1.248,1.728-1.248,2.4V5.472H3.264V2.112c0-.672-.1-1.248-.672-1.248-1.056,0-1.248,1.824-1.248,2.4V5.472H.192V.1Z" transform="translate(80.16 2.304)" fill="#005eac"/>
  <path id="Shape-14" data-name="Shape" d="M0,2.784C0,.96.864,0,2.5,0s2.5.96,2.5,2.784S4.128,5.568,2.5,5.568,0,4.608,0,2.784Z" transform="translate(88.704 2.304)" fill="#005eac"/>
  <path id="Path-25" data-name="Path" d="M0,.1H1.152V1.44h0C1.536.768,1.92,0,2.976,0V1.152c-1.152,0-1.824.384-1.824,1.824v2.4H0Z" transform="translate(94.848 2.304)" fill="#005eac"/>
  <path id="Path-26" data-name="Path" d="M0,.1H1.152V1.44h0C1.536.768,1.92,0,2.976,0V1.152c-1.152,0-1.824.384-1.824,1.824v2.4H0Z" transform="translate(99.072 2.304)" fill="#005eac"/>
  <path id="Shape-15" data-name="Shape" d="M0,2.784C0,.96.864,0,2.5,0s2.5.96,2.5,2.784S4.128,5.568,2.5,5.568,0,4.608,0,2.784Z" transform="translate(102.72 2.304)" fill="#005eac"/>
  <path id="Path-27" data-name="Path" d="M0,0H1.152l.96,3.84h0L3.264,0h.864L5.28,3.84h0L6.144,0H7.2L5.856,5.376H4.8L3.648,1.728h0L2.5,5.376h-.96Z" transform="translate(108.288 2.4)" fill="#005eac"/>
  <path id="Path-28" data-name="Path" d="M0,0H1.344V3.36h2.88V0H5.568V7.776H4.224V4.128H1.344V7.776H0Z" transform="translate(127.008)" fill="#005eac"/>
  <path id="Path-29" data-name="Path" d="M0,.1H1.152V1.44h0C1.536.768,1.92,0,2.976,0V1.152c-1.152,0-1.824.384-1.824,1.824v2.4H0Z" transform="translate(139.488 2.304)" fill="#005eac"/>
  <path id="Shape-16" data-name="Shape" d="M0,7.776V2.4H1.152V7.776ZM0,1.152V0H1.248V1.152Z" transform="translate(143.712)" fill="#005eac"/>
  <path id="Path-30" data-name="Path" d="M3.456,7.3a2.383,2.383,0,0,1-.864.1C1.44,7.392.864,7.1.864,6.048V2.592H0V1.92H.864V.672L2.016,0V1.92H3.552v.672H2.016V5.664c0,.768.1,1.152.864,1.152a1.218,1.218,0,0,0,.576-.1V7.3Z" transform="translate(146.112 0.48)" fill="#005eac"/>
  <path id="Shape-17" data-name="Shape" d="M0,4.224C0,2.592,2.4,2.5,3.168,2.5v-.48c0-.575,0-1.535-.768-1.535s-.864.575-.864,1.152H.288C.384.864.672,0,2.5,0S4.512.96,4.512,2.016V5.472H3.36V4.7H3.168a1.887,1.887,0,0,1-1.632.864A1.423,1.423,0,0,1,0,4.224Z" transform="translate(150.432 2.304)" fill="#005eac"/>
  <path id="Shape-18" data-name="Shape" d="M.288,7.68V6.528A4.041,4.041,0,0,0,2.112,7.2c1.248,0,1.44-.864,1.44-2.016V4.608a1.481,1.481,0,0,1-1.44.768C.672,5.376,0,4.224,0,2.688S.48,0,2.112,0a1.457,1.457,0,0,1,1.44.96V0H4.7V5.184c0,1.536-.48,2.688-2.784,2.688A7.623,7.623,0,0,1,.288,7.68Z" transform="translate(156.096 2.4)" fill="#005eac"/>
  <path id="Shape-19" data-name="Shape" d="M0,2.592C0,1.152.672,0,2.4,0,4.224,0,4.512,1.152,4.512,2.208H1.152c0,1.056.48,2.784,2.208,2.784A3.453,3.453,0,0,0,4.416,4.8v.575a4.138,4.138,0,0,1-1.632.289C1.248,5.664,0,4.8,0,2.592Z" transform="translate(162.144 2.208)" fill="#005eac"/>
  <path id="Shape-20" data-name="Shape" d="M0,2.592C0,1.152.672,0,2.4,0,4.224,0,4.512,1.152,4.512,2.208H1.152c0,1.056.48,2.784,2.208,2.784A4.085,4.085,0,0,0,4.416,4.8v.575a4.138,4.138,0,0,1-1.632.289C1.248,5.664,0,4.8,0,2.592Z" transform="translate(133.92 2.208)" fill="#005eac"/>
</svg>
