<svg xmlns="http://www.w3.org/2000/svg" width="22.87" height="17.152" viewBox="0 0 22.87 17.152">
  <path id="bank" d="M23.3,5.784H4.715A2.15,2.15,0,0,0,2.571,7.928V20.793a2.15,2.15,0,0,0,2.144,2.144H23.3a2.15,2.15,0,0,0,2.144-2.144V7.928A2.15,2.15,0,0,0,23.3,5.784ZM4.715,7.213H23.3a.724.724,0,0,1,.715.715v2.144H4V7.928a.724.724,0,0,1,.715-.715ZM23.3,21.507H4.715A.724.724,0,0,1,4,20.793V14.36H24.011v6.432a.724.724,0,0,1-.715.715ZM5.429,17.219H6.859v2.859H5.429Zm2.859,0H9.718v2.859H8.288Zm2.859,0h1.429v2.859H11.147Z" transform="translate(-2.571 -5.784)" opacity="0.3"/>
</svg>
