<svg xmlns="http://www.w3.org/2000/svg" width="18.449" height="23.274" viewBox="0 0 18.449 23.274">
  <path id="task-icon" d="M22.289,4.837h-5.93a2.783,2.783,0,0,0-2.636-2.909,2.783,2.783,0,0,0-2.636,2.909H5.158a.7.7,0,0,0-.659.727v18.91a.7.7,0,0,0,.659.727H22.289a.7.7,0,0,0,.659-.727V5.565a.7.7,0,0,0-.659-.727ZM13.723,3.383a1.391,1.391,0,0,1,1.318,1.455,1.391,1.391,0,0,1-1.318,1.455,1.391,1.391,0,0,1-1.318-1.455A1.391,1.391,0,0,1,13.723,3.383ZM21.63,23.748H5.817V6.292H8.452V8.474a.7.7,0,0,0,.659.727h9.225a.7.7,0,0,0,.659-.727V6.292H21.63V23.748Zm-9.225-2.307L8.179,16.048l1.2-1.33,3.022,2.608,5.657-5.517,1.2,1.33Z" transform="translate(-4.499 -1.928)" fill="#404040"/>
</svg>
