<svg xmlns="http://www.w3.org/2000/svg" viewBox="0 0 55 27" width="55" height="27">
	<style>
		tspan { white-space:pre }
		.shp0 { fill: #000000 } 
	</style>
	<g id="Layer">
		<path id="Layer" fill-rule="evenodd" class="shp0" d="M54.37 5.63C54.63 5.63 54.85 5.42 54.85 5.16L54.85 2.75C54.85 2.49 54.64 2.28 54.37 2.28L51.95 2.28C51.68 2.28 51.47 2.49 51.47 2.75L51.46 5.16C51.47 5.22 51.48 5.28 51.5 5.34C51.53 5.4 51.56 5.45 51.61 5.49C51.65 5.54 51.7 5.57 51.76 5.6C51.82 5.62 51.88 5.63 51.94 5.63L54.37 5.63ZM51.14 2.28C51.32 2.28 51.46 2.13 51.46 1.96L51.46 0.32C51.46 0.14 51.32 0 51.14 0L49.49 0C49.31 0 49.16 0.14 49.16 0.32L49.16 1.96C49.16 2 49.17 2.04 49.19 2.08C49.21 2.12 49.23 2.16 49.26 2.19C49.29 2.22 49.33 2.24 49.37 2.25C49.41 2.27 49.45 2.28 49.49 2.28L51.14 2.28ZM2.73 6.71C0.84 6.71 0 7.53 0 9.38L0 21.27C0 21.99 0.23 22.22 0.96 22.22L1.2 22.22C1.93 22.22 2.16 21.99 2.16 21.27L2.16 16.65L6.26 16.65C9.89 16.65 11.58 15.07 11.58 11.68C11.58 8.29 9.89 6.71 6.26 6.71L2.73 6.71ZM9.42 11.68C9.42 13.62 8.91 14.67 6.26 14.67L2.16 14.67L2.16 9.67C2.16 8.97 2.43 8.71 3.13 8.71L6.26 8.71C8.26 8.71 9.42 9.2 9.42 11.68ZM16.13 10.12C14.73 10.12 13.85 10.29 13.52 10.35C12.93 10.48 12.68 10.64 12.68 11.29L12.68 11.48C12.68 11.74 12.72 11.92 12.81 12.04C12.9 12.19 13.06 12.26 13.27 12.26C13.37 12.26 13.49 12.25 13.64 12.21C13.97 12.13 15.05 11.96 16.22 11.96C18.33 11.96 19.19 12.53 19.19 13.94L19.19 15.2L16.53 15.2C13.11 15.2 11.52 16.33 11.52 18.76C11.52 21.12 13.16 22.42 16.15 22.42C19.7 22.42 21.29 21.24 21.29 18.58L21.29 13.94C21.29 11.37 19.6 10.11 16.13 10.11L16.13 10.12ZM19.19 18.5C19.19 19.84 18.69 20.6 16.13 20.6C14.43 20.6 13.61 20 13.61 18.76C13.61 17.4 14.43 16.88 16.55 16.88L19.19 16.88L19.19 18.5ZM32.99 10.67C32.84 10.48 32.55 10.46 32.27 10.46L32.05 10.46C31.34 10.46 31.06 10.67 30.9 11.35L28.92 19.42C28.68 20.41 28.33 20.59 27.74 20.59C27.01 20.59 26.72 20.42 26.43 19.42L24.19 11.34C24 10.66 23.73 10.46 23.02 10.46L22.83 10.46C22.54 10.46 22.25 10.48 22.1 10.67C21.96 10.86 22.01 11.14 22.08 11.42L24.35 19.57C24.77 21.12 25.28 22.42 27.16 22.42C27.52 22.42 27.84 22.37 28.11 22.28C27.54 24.05 26.96 24.82 25.24 25C24.89 25.03 24.67 25.07 24.54 25.24C24.41 25.41 24.44 25.66 24.49 25.88L24.53 26.09C24.64 26.57 24.81 26.87 25.36 26.87C25.42 26.87 25.48 26.87 25.55 26.86C28.11 26.7 29.49 25.34 30.29 22.18L33.03 11.41C33.1 11.14 33.14 10.86 32.99 10.67ZM47.13 6.71L46.67 6.71C45.19 6.71 44.65 6.95 44.65 8.27L44.65 12.05C44.64 12.07 44.64 12.1 44.64 12.12L44.64 16.43C44.64 16.96 44.54 17.38 44.33 17.71C43.92 18.31 43.13 18.59 41.85 18.59C40.58 18.59 39.78 18.31 39.38 17.71C39.17 17.38 39.06 16.96 39.06 16.43L39.06 8.27C39.06 6.95 38.51 6.71 37.04 6.71L36.57 6.71C35.1 6.71 34.55 6.95 34.55 8.27L34.55 16.43C34.55 17.75 34.85 18.86 35.43 19.76C36.56 21.49 38.74 22.42 41.84 22.42L41.86 22.42C44.96 22.42 47.15 21.49 48.27 19.76C48.86 18.86 49.16 17.75 49.16 16.43L49.16 8.27C49.16 6.95 48.61 6.71 47.13 6.71Z" />
		<path id="Layer" fill-rule="evenodd" class="shp0" d="M50.82 10.14L49.16 10.14L49.16 8.27C49.16 6.95 48.61 6.71 47.13 6.71L46.91 6.71L46.91 6.26C46.91 6.18 46.93 6.09 46.96 6.02C46.99 5.94 47.04 5.87 47.1 5.81C47.16 5.75 47.23 5.71 47.31 5.67C47.38 5.64 47.47 5.63 47.55 5.63L50.82 5.63C50.9 5.63 50.99 5.64 51.06 5.68C51.14 5.71 51.21 5.75 51.27 5.81C51.33 5.87 51.38 5.94 51.41 6.02C51.45 6.1 51.46 6.18 51.46 6.26L51.46 9.51C51.46 9.59 51.45 9.68 51.41 9.75C51.38 9.83 51.33 9.9 51.27 9.96C51.21 10.02 51.14 10.07 51.06 10.1C50.99 10.13 50.9 10.14 50.82 10.14Z" />
	</g>
</svg>